G04*
G04 #@! TF.GenerationSoftware,Altium Limited,Altium Designer,21.6.4 (81)*
G04*
G04 Layer_Color=8421504*
%FSLAX25Y25*%
%MOIN*%
G70*
G04*
G04 #@! TF.SameCoordinates,4A56815A-3FA2-45B3-BCD2-B1825AC70E21*
G04*
G04*
G04 #@! TF.FilePolarity,Positive*
G04*
G01*
G75*
%ADD19R,0.02756X0.02362*%
%ADD20R,0.13386X0.02362*%
%ADD21R,0.03150X0.03150*%
%ADD22R,0.03937X0.05709*%
%ADD23R,0.05709X0.03937*%
D19*
X146000Y149469D02*
D03*
Y145531D02*
D03*
X54000Y48910D02*
D03*
Y52847D02*
D03*
X303900Y55032D02*
D03*
Y58969D02*
D03*
X275400Y55032D02*
D03*
Y58969D02*
D03*
X245900Y55032D02*
D03*
Y58969D02*
D03*
X217400Y55032D02*
D03*
Y58969D02*
D03*
X54000Y79094D02*
D03*
Y83031D02*
D03*
Y19126D02*
D03*
Y23063D02*
D03*
D20*
X85370Y84595D02*
D03*
Y79594D02*
D03*
Y74594D02*
D03*
Y69595D02*
D03*
X106630D02*
D03*
Y74594D02*
D03*
Y79594D02*
D03*
Y84595D02*
D03*
D21*
X304500Y97000D02*
D03*
Y102905D02*
D03*
X276000Y97047D02*
D03*
Y102953D02*
D03*
X246500Y97047D02*
D03*
Y102953D02*
D03*
X218000Y97000D02*
D03*
Y102905D02*
D03*
X146000Y165547D02*
D03*
Y171453D02*
D03*
D22*
X134060Y99094D02*
D03*
X141540D02*
D03*
D23*
X104000Y163354D02*
D03*
Y170835D02*
D03*
M02*
