G04*
G04 #@! TF.GenerationSoftware,Altium Limited,Altium Designer,21.6.4 (81)*
G04*
G04 Layer_Physical_Order=2*
G04 Layer_Color=16711680*
%FSLAX25Y25*%
%MOIN*%
G70*
G04*
G04 #@! TF.SameCoordinates,4A56815A-3FA2-45B3-BCD2-B1825AC70E21*
G04*
G04*
G04 #@! TF.FilePolarity,Positive*
G04*
G01*
G75*
%ADD14C,0.00600*%
%ADD33C,0.06378*%
%ADD34O,0.12992X0.07087*%
%ADD35O,0.07874X0.14961*%
%ADD36C,0.07000*%
%ADD37C,0.05000*%
%ADD38C,0.02500*%
G36*
X347961Y2040D02*
X2039D01*
Y197961D01*
X347961D01*
Y2040D01*
D02*
G37*
%LPC*%
G36*
X36500Y179552D02*
Y171595D01*
X40980D01*
Y174638D01*
X40810Y175927D01*
X40312Y177128D01*
X39521Y178159D01*
X38490Y178950D01*
X37289Y179448D01*
X36500Y179552D01*
D02*
G37*
G36*
X35500D02*
X34711Y179448D01*
X33510Y178950D01*
X32479Y178159D01*
X31688Y177128D01*
X31190Y175927D01*
X31020Y174638D01*
Y171595D01*
X35500D01*
Y179552D01*
D02*
G37*
G36*
X40980Y170595D02*
X36500D01*
Y162637D01*
X37289Y162741D01*
X38490Y163239D01*
X39521Y164030D01*
X40312Y165061D01*
X40810Y166262D01*
X40980Y167551D01*
Y170595D01*
D02*
G37*
G36*
X35500D02*
X31020D01*
Y167551D01*
X31190Y166262D01*
X31688Y165061D01*
X32479Y164030D01*
X33510Y163239D01*
X34711Y162741D01*
X35500Y162637D01*
Y170595D01*
D02*
G37*
G36*
X59622Y179617D02*
X58333Y179448D01*
X57132Y178950D01*
X56101Y178159D01*
X55310Y177128D01*
X54812Y175927D01*
X54642Y174638D01*
Y167551D01*
X54812Y166262D01*
X55310Y165061D01*
X56101Y164030D01*
X57132Y163239D01*
X58333Y162741D01*
X59622Y162572D01*
X60911Y162741D01*
X62112Y163239D01*
X63143Y164030D01*
X63934Y165061D01*
X64432Y166262D01*
X64602Y167551D01*
Y174638D01*
X64432Y175927D01*
X63934Y177128D01*
X63143Y178159D01*
X62112Y178950D01*
X60911Y179448D01*
X59622Y179617D01*
D02*
G37*
G36*
X52732Y157370D02*
X50279D01*
Y153287D01*
X57249D01*
X57159Y153973D01*
X56701Y155079D01*
X55973Y156028D01*
X55023Y156756D01*
X53918Y157214D01*
X52732Y157370D01*
D02*
G37*
G36*
X49279D02*
X46827D01*
X45641Y157214D01*
X44535Y156756D01*
X43587Y156028D01*
X42858Y155079D01*
X42400Y153973D01*
X42310Y153287D01*
X49279D01*
Y157370D01*
D02*
G37*
G36*
X57249Y152287D02*
X50279D01*
Y148205D01*
X52732D01*
X53918Y148361D01*
X55023Y148819D01*
X55973Y149547D01*
X56701Y150496D01*
X57159Y151601D01*
X57249Y152287D01*
D02*
G37*
G36*
X49279D02*
X42310D01*
X42400Y151601D01*
X42858Y150496D01*
X43587Y149547D01*
X44535Y148819D01*
X45641Y148361D01*
X46827Y148205D01*
X49279D01*
Y152287D01*
D02*
G37*
G36*
X22592Y125594D02*
X22500D01*
Y121595D01*
X26500D01*
Y121687D01*
X26193Y122831D01*
X25601Y123857D01*
X24763Y124695D01*
X23737Y125288D01*
X22592Y125594D01*
D02*
G37*
G36*
X42592D02*
X42500D01*
Y121595D01*
X46500D01*
Y121687D01*
X46193Y122831D01*
X45601Y123857D01*
X44763Y124695D01*
X43737Y125288D01*
X42592Y125594D01*
D02*
G37*
G36*
X32592D02*
X32500D01*
Y121595D01*
X36500D01*
Y121687D01*
X36193Y122831D01*
X35601Y123857D01*
X34763Y124695D01*
X33737Y125288D01*
X32592Y125594D01*
D02*
G37*
G36*
X21500D02*
X21408D01*
X20263Y125288D01*
X19237Y124695D01*
X18399Y123857D01*
X17807Y122831D01*
X17500Y121687D01*
Y121595D01*
X21500D01*
Y125594D01*
D02*
G37*
G36*
X31500D02*
X31408D01*
X30263Y125288D01*
X29237Y124695D01*
X28399Y123857D01*
X27807Y122831D01*
X27500Y121687D01*
Y121595D01*
X31500D01*
Y125594D01*
D02*
G37*
G36*
X41500D02*
X41408D01*
X40263Y125288D01*
X39237Y124695D01*
X38399Y123857D01*
X37807Y122831D01*
X37500Y121687D01*
Y121595D01*
X41500D01*
Y125594D01*
D02*
G37*
G36*
X112551Y129283D02*
X111449D01*
X110383Y128998D01*
X109428Y128446D01*
X108648Y127667D01*
X108097Y126711D01*
X107811Y125646D01*
Y124543D01*
X108097Y123478D01*
X108648Y122522D01*
X109428Y121742D01*
X110383Y121191D01*
X111449Y120905D01*
X112551D01*
X113617Y121191D01*
X114572Y121742D01*
X115352Y122522D01*
X115903Y123478D01*
X116189Y124543D01*
Y125646D01*
X115903Y126711D01*
X115352Y127667D01*
X114572Y128446D01*
X113617Y128998D01*
X112551Y129283D01*
D02*
G37*
G36*
X52592Y125594D02*
X51408D01*
X50263Y125288D01*
X49237Y124695D01*
X48399Y123857D01*
X47807Y122831D01*
X47500Y121687D01*
Y120502D01*
X47807Y119358D01*
X48399Y118331D01*
X49237Y117494D01*
X50263Y116901D01*
X51408Y116595D01*
X52592D01*
X53737Y116901D01*
X54763Y117494D01*
X55601Y118331D01*
X56193Y119358D01*
X56500Y120502D01*
Y121687D01*
X56193Y122831D01*
X55601Y123857D01*
X54763Y124695D01*
X53737Y125288D01*
X52592Y125594D01*
D02*
G37*
G36*
X46500Y120595D02*
X42500D01*
Y116595D01*
X42592D01*
X43737Y116901D01*
X44763Y117494D01*
X45601Y118331D01*
X46193Y119358D01*
X46500Y120502D01*
Y120595D01*
D02*
G37*
G36*
X41500D02*
X37500D01*
Y120502D01*
X37807Y119358D01*
X38399Y118331D01*
X39237Y117494D01*
X40263Y116901D01*
X41408Y116595D01*
X41500D01*
Y120595D01*
D02*
G37*
G36*
X36500D02*
X32500D01*
Y116595D01*
X32592D01*
X33737Y116901D01*
X34763Y117494D01*
X35601Y118331D01*
X36193Y119358D01*
X36500Y120502D01*
Y120595D01*
D02*
G37*
G36*
X31500D02*
X27500D01*
Y120502D01*
X27807Y119358D01*
X28399Y118331D01*
X29237Y117494D01*
X30263Y116901D01*
X31408Y116595D01*
X31500D01*
Y120595D01*
D02*
G37*
G36*
X26500D02*
X22500D01*
Y116595D01*
X22592D01*
X23737Y116901D01*
X24763Y117494D01*
X25601Y118331D01*
X26193Y119358D01*
X26500Y120502D01*
Y120595D01*
D02*
G37*
G36*
X21500D02*
X17500D01*
Y120502D01*
X17807Y119358D01*
X18399Y118331D01*
X19237Y117494D01*
X20263Y116901D01*
X21408Y116595D01*
X21500D01*
Y120595D01*
D02*
G37*
G36*
X112551Y119283D02*
X111449D01*
X110383Y118998D01*
X109428Y118447D01*
X108648Y117667D01*
X108097Y116711D01*
X107811Y115646D01*
Y114543D01*
X108097Y113478D01*
X108648Y112522D01*
X109428Y111742D01*
X110383Y111191D01*
X111449Y110906D01*
X112551D01*
X113617Y111191D01*
X114572Y111742D01*
X115352Y112522D01*
X115903Y113478D01*
X116189Y114543D01*
Y115646D01*
X115903Y116711D01*
X115352Y117667D01*
X114572Y118447D01*
X113617Y118998D01*
X112551Y119283D01*
D02*
G37*
G36*
X162551Y77189D02*
X161449D01*
X160383Y76903D01*
X159428Y76352D01*
X158648Y75572D01*
X158097Y74617D01*
X157811Y73551D01*
Y72448D01*
X158097Y71383D01*
X158648Y70428D01*
X159428Y69648D01*
X160383Y69096D01*
X161449Y68811D01*
X162551D01*
X163617Y69096D01*
X164572Y69648D01*
X165352Y70428D01*
X165903Y71383D01*
X166189Y72448D01*
Y73551D01*
X165903Y74617D01*
X165352Y75572D01*
X164572Y76352D01*
X163617Y76903D01*
X162551Y77189D01*
D02*
G37*
G36*
X152551D02*
X151449D01*
X150383Y76903D01*
X149428Y76352D01*
X148648Y75572D01*
X148097Y74617D01*
X147811Y73551D01*
Y72448D01*
X148097Y71383D01*
X148648Y70428D01*
X149428Y69648D01*
X150383Y69096D01*
X151449Y68811D01*
X152551D01*
X153617Y69096D01*
X154572Y69648D01*
X155352Y70428D01*
X155903Y71383D01*
X156189Y72448D01*
Y73551D01*
X155903Y74617D01*
X155352Y75572D01*
X154572Y76352D01*
X153617Y76903D01*
X152551Y77189D01*
D02*
G37*
G36*
X65948Y75250D02*
X65052D01*
X64226Y74907D01*
X63592Y74274D01*
X63250Y73448D01*
Y72552D01*
X63592Y71725D01*
X64226Y71092D01*
X65052Y70750D01*
X65876D01*
X71750Y64876D01*
Y64052D01*
X72092Y63226D01*
X72725Y62593D01*
X73552Y62250D01*
X74448D01*
X75274Y62593D01*
X75907Y63226D01*
X76250Y64052D01*
Y64948D01*
X75907Y65775D01*
X75274Y66408D01*
X74448Y66750D01*
X73624D01*
X67750Y72624D01*
Y73448D01*
X67408Y74274D01*
X66774Y74907D01*
X65948Y75250D01*
D02*
G37*
G36*
X120948Y70250D02*
X120052D01*
X119226Y69907D01*
X118593Y69274D01*
X118250Y68448D01*
Y67552D01*
X118593Y66725D01*
X119175Y66144D01*
Y61357D01*
X118593Y60774D01*
X118250Y59948D01*
Y59052D01*
X118593Y58226D01*
X119226Y57592D01*
X120052Y57250D01*
X120948D01*
X121774Y57592D01*
X122407Y58226D01*
X122750Y59052D01*
Y59948D01*
X122407Y60774D01*
X121826Y61357D01*
Y66144D01*
X122407Y66725D01*
X122750Y67552D01*
Y68448D01*
X122407Y69274D01*
X121774Y69907D01*
X120948Y70250D01*
D02*
G37*
G36*
X188592Y45594D02*
X187408D01*
X186263Y45288D01*
X185237Y44695D01*
X184399Y43857D01*
X183807Y42831D01*
X183500Y41687D01*
Y40502D01*
X183807Y39358D01*
X184399Y38331D01*
X185237Y37494D01*
X186263Y36901D01*
X187408Y36595D01*
X188592D01*
X189737Y36901D01*
X190763Y37494D01*
X191601Y38331D01*
X192193Y39358D01*
X192500Y40502D01*
Y41687D01*
X192193Y42831D01*
X191601Y43857D01*
X190763Y44695D01*
X189737Y45288D01*
X188592Y45594D01*
D02*
G37*
G36*
X126092Y45500D02*
X124908D01*
X123763Y45193D01*
X122737Y44601D01*
X121899Y43763D01*
X121307Y42737D01*
X121000Y41592D01*
Y40408D01*
X121307Y39263D01*
X121899Y38237D01*
X122737Y37399D01*
X123763Y36807D01*
X124908Y36500D01*
X126092D01*
X127237Y36807D01*
X128263Y37399D01*
X129101Y38237D01*
X129693Y39263D01*
X130000Y40408D01*
Y41592D01*
X129693Y42737D01*
X129101Y43763D01*
X128263Y44601D01*
X127237Y45193D01*
X126092Y45500D01*
D02*
G37*
G36*
X188592Y35594D02*
X188500D01*
Y31594D01*
X192500D01*
Y31687D01*
X192193Y32831D01*
X191601Y33858D01*
X190763Y34695D01*
X189737Y35288D01*
X188592Y35594D01*
D02*
G37*
G36*
X187500D02*
X187408D01*
X186263Y35288D01*
X185237Y34695D01*
X184399Y33858D01*
X183807Y32831D01*
X183500Y31687D01*
Y31594D01*
X187500D01*
Y35594D01*
D02*
G37*
G36*
X126092Y35500D02*
X126000D01*
Y31500D01*
X130000D01*
Y31592D01*
X129693Y32737D01*
X129101Y33763D01*
X128263Y34601D01*
X127237Y35193D01*
X126092Y35500D01*
D02*
G37*
G36*
X125000D02*
X124908D01*
X123763Y35193D01*
X122737Y34601D01*
X121899Y33763D01*
X121307Y32737D01*
X121000Y31592D01*
Y31500D01*
X125000D01*
Y35500D01*
D02*
G37*
G36*
X192500Y30595D02*
X188500D01*
Y26594D01*
X188592D01*
X189737Y26901D01*
X190763Y27494D01*
X191601Y28331D01*
X192193Y29357D01*
X192500Y30502D01*
Y30595D01*
D02*
G37*
G36*
X187500D02*
X183500D01*
Y30502D01*
X183807Y29357D01*
X184399Y28331D01*
X185237Y27494D01*
X186263Y26901D01*
X187408Y26594D01*
X187500D01*
Y30595D01*
D02*
G37*
G36*
X130000Y30500D02*
X126000D01*
Y26500D01*
X126092D01*
X127237Y26807D01*
X128263Y27399D01*
X129101Y28237D01*
X129693Y29263D01*
X130000Y30408D01*
Y30500D01*
D02*
G37*
G36*
X125000D02*
X121000D01*
Y30408D01*
X121307Y29263D01*
X121899Y28237D01*
X122737Y27399D01*
X123763Y26807D01*
X124908Y26500D01*
X125000D01*
Y30500D01*
D02*
G37*
G36*
X188592Y25594D02*
X188500D01*
Y21595D01*
X192500D01*
Y21687D01*
X192193Y22831D01*
X191601Y23858D01*
X190763Y24695D01*
X189737Y25288D01*
X188592Y25594D01*
D02*
G37*
G36*
X187500D02*
X187408D01*
X186263Y25288D01*
X185237Y24695D01*
X184399Y23858D01*
X183807Y22831D01*
X183500Y21687D01*
Y21595D01*
X187500D01*
Y25594D01*
D02*
G37*
G36*
X126092Y25500D02*
X126000D01*
Y21500D01*
X130000D01*
Y21592D01*
X129693Y22737D01*
X129101Y23763D01*
X128263Y24601D01*
X127237Y25193D01*
X126092Y25500D01*
D02*
G37*
G36*
X125000D02*
X124908D01*
X123763Y25193D01*
X122737Y24601D01*
X121899Y23763D01*
X121307Y22737D01*
X121000Y21592D01*
Y21500D01*
X125000D01*
Y25500D01*
D02*
G37*
G36*
X192500Y20595D02*
X188500D01*
Y16594D01*
X188592D01*
X189737Y16901D01*
X190763Y17494D01*
X191601Y18331D01*
X192193Y19358D01*
X192500Y20502D01*
Y20595D01*
D02*
G37*
G36*
X187500D02*
X183500D01*
Y20502D01*
X183807Y19358D01*
X184399Y18331D01*
X185237Y17494D01*
X186263Y16901D01*
X187408Y16594D01*
X187500D01*
Y20595D01*
D02*
G37*
G36*
X130000Y20500D02*
X126000D01*
Y16500D01*
X126092D01*
X127237Y16807D01*
X128263Y17399D01*
X129101Y18237D01*
X129693Y19263D01*
X130000Y20408D01*
Y20500D01*
D02*
G37*
G36*
X125000D02*
X121000D01*
Y20408D01*
X121307Y19263D01*
X121899Y18237D01*
X122737Y17399D01*
X123763Y16807D01*
X124908Y16500D01*
X125000D01*
Y20500D01*
D02*
G37*
G36*
X188592Y15595D02*
X188500D01*
Y11594D01*
X192500D01*
Y11687D01*
X192193Y12831D01*
X191601Y13858D01*
X190763Y14695D01*
X189737Y15288D01*
X188592Y15595D01*
D02*
G37*
G36*
X187500D02*
X187408D01*
X186263Y15288D01*
X185237Y14695D01*
X184399Y13858D01*
X183807Y12831D01*
X183500Y11687D01*
Y11594D01*
X187500D01*
Y15595D01*
D02*
G37*
G36*
X126092Y15500D02*
X126000D01*
Y11500D01*
X130000D01*
Y11592D01*
X129693Y12737D01*
X129101Y13763D01*
X128263Y14601D01*
X127237Y15193D01*
X126092Y15500D01*
D02*
G37*
G36*
X125000D02*
X124908D01*
X123763Y15193D01*
X122737Y14601D01*
X121899Y13763D01*
X121307Y12737D01*
X121000Y11592D01*
Y11500D01*
X125000D01*
Y15500D01*
D02*
G37*
G36*
X192500Y10594D02*
X188500D01*
Y6594D01*
X188592D01*
X189737Y6901D01*
X190763Y7494D01*
X191601Y8331D01*
X192193Y9358D01*
X192500Y10502D01*
Y10594D01*
D02*
G37*
G36*
X187500D02*
X183500D01*
Y10502D01*
X183807Y9358D01*
X184399Y8331D01*
X185237Y7494D01*
X186263Y6901D01*
X187408Y6594D01*
X187500D01*
Y10594D01*
D02*
G37*
G36*
X130000Y10500D02*
X126000D01*
Y6500D01*
X126092D01*
X127237Y6807D01*
X128263Y7399D01*
X129101Y8237D01*
X129693Y9263D01*
X130000Y10408D01*
Y10500D01*
D02*
G37*
G36*
X125000D02*
X121000D01*
Y10408D01*
X121307Y9263D01*
X121899Y8237D01*
X122737Y7399D01*
X123763Y6807D01*
X124908Y6500D01*
X125000D01*
Y10500D01*
D02*
G37*
%LPD*%
D14*
X120500Y59500D02*
Y68000D01*
X65500Y73000D02*
X74000Y64500D01*
D33*
X162000Y73000D02*
D03*
X152000D02*
D03*
X112000Y125094D02*
D03*
Y115094D02*
D03*
D34*
X49779Y152787D02*
D03*
D35*
X36000Y171095D02*
D03*
X59622D02*
D03*
D36*
X188000Y31095D02*
D03*
Y41094D02*
D03*
Y11095D02*
D03*
Y21094D02*
D03*
X125500Y31000D02*
D03*
Y41000D02*
D03*
Y11000D02*
D03*
Y21000D02*
D03*
X42000Y121095D02*
D03*
X52000D02*
D03*
X22000D02*
D03*
X32000D02*
D03*
D37*
X146000Y138000D02*
D03*
X245900Y46400D02*
D03*
X275400D02*
D03*
X71000Y85000D02*
D03*
X217300Y46400D02*
D03*
X104000Y154500D02*
D03*
X304000Y46500D02*
D03*
X54000Y9500D02*
D03*
X154000Y99000D02*
D03*
D38*
X120500Y59500D02*
D03*
Y68000D02*
D03*
X74000Y64500D02*
D03*
X65500Y73000D02*
D03*
M02*
