M48
;Layer_Color=9474304
;FILE_FORMAT=2:5
INCH,LZ
;TYPE=PLATED
T1F00S00C0.01300
T2F00S00C0.02800
T4F00S00C0.04000
T5F00S00C0.04016
%
T01
X0074Y00645
X00655Y0073
X01205Y0068
Y00595
T02
X0054Y00095
X02173Y00464
X02459
X02754
X0304Y00465
X0154Y0099
X0146Y0138
X0104Y01545
X0071Y0085
T04
X01255Y0011
Y0021
Y0031
Y0041
X0188Y0041094
Y0031095
Y0021094
Y0011095
X0052Y0121095
X0042
X0032
X0022
T05
X0152Y0073
X0162
X0112Y0115094
Y0125094
M30
