G04*
G04 #@! TF.GenerationSoftware,Altium Limited,Altium Designer,21.6.4 (81)*
G04*
G04 Layer_Physical_Order=1*
G04 Layer_Color=255*
%FSLAX25Y25*%
%MOIN*%
G70*
G04*
G04 #@! TF.SameCoordinates,4A56815A-3FA2-45B3-BCD2-B1825AC70E21*
G04*
G04*
G04 #@! TF.FilePolarity,Positive*
G04*
G01*
G75*
%ADD12C,0.02000*%
%ADD14C,0.00600*%
%ADD19R,0.02756X0.02362*%
%ADD20R,0.13386X0.02362*%
%ADD21R,0.03150X0.03150*%
%ADD22R,0.03937X0.05709*%
%ADD23R,0.05709X0.03937*%
%ADD33C,0.06378*%
%ADD34O,0.12992X0.07087*%
%ADD35O,0.07874X0.14961*%
%ADD36C,0.07000*%
%ADD37C,0.05000*%
%ADD38C,0.02500*%
D12*
X90882Y69595D02*
X95976Y64500D01*
X123500D01*
X85370Y69595D02*
X90882D01*
X106224Y85000D02*
X112000Y90776D01*
X145512Y170965D02*
X146000Y171453D01*
X118524Y170965D02*
X145512D01*
X112142Y84595D02*
X117405D01*
X106630D02*
X112142D01*
X123500Y64500D02*
X125500Y66500D01*
Y76500D01*
X117405Y84595D02*
X125500Y76500D01*
X126642Y99094D02*
X134060D01*
X106224Y85000D02*
X106630Y84595D01*
X112142D02*
X126642Y99094D01*
X112000Y90776D02*
Y102935D01*
Y115094D01*
X104130Y170965D02*
X118524D01*
X81941Y151035D02*
Y170835D01*
X104000D01*
X112000Y125094D02*
X118524Y131618D01*
Y170965D01*
X52000Y121095D02*
X81941Y151035D01*
X74100Y102935D02*
X112000D01*
X54000Y83031D02*
X54197D01*
X74100Y102935D01*
X59882Y170835D02*
X81941D01*
X104000D02*
X104130Y170965D01*
X104000Y154500D02*
Y163354D01*
X59622Y171095D02*
X59882Y170835D01*
D14*
X146000Y149469D02*
Y165547D01*
Y138000D02*
Y145531D01*
X85370Y79594D02*
X96118D01*
X101118Y74594D01*
X106630D01*
X141200Y62200D02*
X152000Y73000D01*
X81800Y62200D02*
X141200D01*
X77377Y66623D02*
X81800Y62200D01*
X79000Y59500D02*
X120500D01*
Y68000D02*
X120752Y68252D01*
Y75748D01*
X73637Y64136D02*
X74000Y64500D01*
X116905Y79594D02*
X120752Y75748D01*
X106630Y79594D02*
X116905D01*
X304000Y54632D02*
X304400Y55032D01*
X304000Y46500D02*
Y54632D01*
X304500Y59569D02*
Y97000D01*
X303900Y58969D02*
X304500Y59569D01*
X304453Y102953D02*
X304500Y102905D01*
X141540Y99094D02*
X141635Y99000D01*
X154000D01*
X74000Y64500D02*
X79000Y59500D01*
X77377Y66623D02*
Y71314D01*
X84932Y72076D02*
X85370Y72513D01*
Y74594D01*
X54000Y23063D02*
Y48910D01*
Y52847D02*
Y79094D01*
Y48910D02*
X54881Y49791D01*
X55342D01*
X67447Y61897D01*
X78139Y72076D02*
X84932D01*
X77377Y71314D02*
X78139Y72076D01*
X67447Y61897D02*
Y67183D01*
X125500Y41000D02*
X141905D01*
X152000Y51095D01*
X54000Y79094D02*
X54197D01*
X84965Y85000D02*
X85370Y84595D01*
X71000Y85000D02*
X84965D01*
X79858Y79594D02*
X85370D01*
X54197Y79094D02*
X60291Y73000D01*
X67447Y67183D02*
X79858Y79594D01*
X60291Y73000D02*
X65500D01*
X54000Y9500D02*
Y19126D01*
X245900Y46400D02*
Y54931D01*
X217300Y46400D02*
Y54931D01*
X275400Y46400D02*
Y55032D01*
X245900Y96447D02*
X246500Y97047D01*
Y59569D02*
Y97047D01*
X276000Y59569D02*
Y97047D01*
X191905Y102905D02*
X218000D01*
X162000Y73000D02*
X191905Y102905D01*
X152000Y51095D02*
Y73000D01*
X276000Y102953D02*
X304453D01*
X205874Y58969D02*
X217400D01*
X188000Y41094D02*
X205874Y58969D01*
X218000Y102905D02*
X246453D01*
X246500Y102953D01*
X276000D01*
X245900Y54931D02*
X246000Y55032D01*
X275400Y58969D02*
X276000Y59569D01*
X245900Y58969D02*
X246500Y59569D01*
X217400Y58969D02*
X218000Y59569D01*
Y97000D01*
D19*
X146000Y149469D02*
D03*
Y145531D02*
D03*
X54000Y48910D02*
D03*
Y52847D02*
D03*
X303900Y55032D02*
D03*
Y58969D02*
D03*
X275400Y55032D02*
D03*
Y58969D02*
D03*
X245900Y55032D02*
D03*
Y58969D02*
D03*
X217400Y55032D02*
D03*
Y58969D02*
D03*
X54000Y79094D02*
D03*
Y83031D02*
D03*
Y19126D02*
D03*
Y23063D02*
D03*
D20*
X85370Y84595D02*
D03*
Y79594D02*
D03*
Y74594D02*
D03*
Y69595D02*
D03*
X106630D02*
D03*
Y74594D02*
D03*
Y79594D02*
D03*
Y84595D02*
D03*
D21*
X304500Y97000D02*
D03*
Y102905D02*
D03*
X276000Y97047D02*
D03*
Y102953D02*
D03*
X246500Y97047D02*
D03*
Y102953D02*
D03*
X218000Y97000D02*
D03*
Y102905D02*
D03*
X146000Y165547D02*
D03*
Y171453D02*
D03*
D22*
X134060Y99094D02*
D03*
X141540D02*
D03*
D23*
X104000Y163354D02*
D03*
Y170835D02*
D03*
D33*
X162000Y73000D02*
D03*
X152000D02*
D03*
X112000Y125094D02*
D03*
Y115094D02*
D03*
D34*
X49779Y152787D02*
D03*
D35*
X36000Y171095D02*
D03*
X59622D02*
D03*
D36*
X188000Y31095D02*
D03*
Y41094D02*
D03*
Y11095D02*
D03*
Y21094D02*
D03*
X125500Y31000D02*
D03*
Y41000D02*
D03*
Y11000D02*
D03*
Y21000D02*
D03*
X42000Y121095D02*
D03*
X52000D02*
D03*
X22000D02*
D03*
X32000D02*
D03*
D37*
X146000Y138000D02*
D03*
X245900Y46400D02*
D03*
X275400D02*
D03*
X71000Y85000D02*
D03*
X217300Y46400D02*
D03*
X104000Y154500D02*
D03*
X304000Y46500D02*
D03*
X54000Y9500D02*
D03*
X154000Y99000D02*
D03*
D38*
X120500Y59500D02*
D03*
Y68000D02*
D03*
X74000Y64500D02*
D03*
X65500Y73000D02*
D03*
M02*
