G04*
G04 #@! TF.GenerationSoftware,Altium Limited,Altium Designer,21.6.4 (81)*
G04*
G04 Layer_Color=16711935*
%FSLAX25Y25*%
%MOIN*%
G70*
G04*
G04 #@! TF.SameCoordinates,4A56815A-3FA2-45B3-BCD2-B1825AC70E21*
G04*
G04*
G04 #@! TF.FilePolarity,Negative*
G04*
G01*
G75*
%ADD24C,0.00000*%
%ADD27C,0.07178*%
%ADD28O,0.13792X0.07887*%
%ADD29O,0.08674X0.15761*%
%ADD30C,0.07800*%
%ADD31C,0.05800*%
%ADD32C,0.03300*%
D24*
X165390Y73000D02*
G03*
X165390Y73000I-3390J0D01*
G01*
X155390D02*
G03*
X155390Y73000I-3390J0D01*
G01*
X115390Y125094D02*
G03*
X115390Y125094I-3390J0D01*
G01*
Y115094D02*
G03*
X115390Y115094I-3390J0D01*
G01*
D27*
X162000Y73000D02*
D03*
X152000D02*
D03*
X112000Y125094D02*
D03*
Y115094D02*
D03*
D28*
X49779Y152787D02*
D03*
D29*
X36000Y171095D02*
D03*
X59622D02*
D03*
D30*
X188000Y31095D02*
D03*
Y41094D02*
D03*
Y11095D02*
D03*
Y21094D02*
D03*
X125500Y31000D02*
D03*
Y41000D02*
D03*
Y11000D02*
D03*
Y21000D02*
D03*
X42000Y121095D02*
D03*
X52000D02*
D03*
X22000D02*
D03*
X32000D02*
D03*
D31*
X146000Y138000D02*
D03*
X245900Y46400D02*
D03*
X275400D02*
D03*
X71000Y85000D02*
D03*
X217300Y46400D02*
D03*
X104000Y154500D02*
D03*
X304000Y46500D02*
D03*
X54000Y9500D02*
D03*
X154000Y99000D02*
D03*
D32*
X120500Y59500D02*
D03*
Y68000D02*
D03*
X74000Y64500D02*
D03*
X65500Y73000D02*
D03*
M02*
