G04*
G04 #@! TF.GenerationSoftware,Altium Limited,Altium Designer,21.6.4 (81)*
G04*
G04 Layer_Color=8388736*
%FSLAX25Y25*%
%MOIN*%
G70*
G04*
G04 #@! TF.SameCoordinates,79C8AE82-9BE0-4765-80E1-41451E26D3F0*
G04*
G04*
G04 #@! TF.FilePolarity,Negative*
G04*
G01*
G75*
%ADD20R,0.02756X0.02362*%
%ADD23R,0.03937X0.05709*%
%ADD24R,0.05709X0.03937*%
%ADD25C,0.00000*%
%ADD26R,0.14186X0.03162*%
%ADD27R,0.03950X0.03950*%
%ADD28R,0.03950X0.03950*%
%ADD29C,0.07800*%
%ADD30C,0.07178*%
%ADD31O,0.08674X0.15761*%
%ADD32O,0.13792X0.07887*%
%ADD33C,0.05800*%
%ADD34C,0.03300*%
D20*
X54000Y48910D02*
D03*
Y52847D02*
D03*
X303900Y55032D02*
D03*
Y58969D02*
D03*
X275400Y55032D02*
D03*
Y58969D02*
D03*
X245900Y55032D02*
D03*
Y58969D02*
D03*
X217400Y55032D02*
D03*
Y58969D02*
D03*
X54000Y79094D02*
D03*
Y83031D02*
D03*
X135000Y149158D02*
D03*
Y153094D02*
D03*
X54000Y19126D02*
D03*
Y23063D02*
D03*
D23*
X134060Y99094D02*
D03*
X141540D02*
D03*
D24*
X104000Y163354D02*
D03*
Y170835D02*
D03*
D25*
X155390Y73000D02*
G03*
X155390Y73000I-3390J0D01*
G01*
X165390D02*
G03*
X165390Y73000I-3390J0D01*
G01*
X115390Y125094D02*
G03*
X115390Y125094I-3390J0D01*
G01*
Y115094D02*
G03*
X115390Y115094I-3390J0D01*
G01*
D26*
X85370Y84595D02*
D03*
Y79594D02*
D03*
Y74594D02*
D03*
Y69595D02*
D03*
X106630D02*
D03*
Y74594D02*
D03*
Y79594D02*
D03*
Y84595D02*
D03*
D27*
X304500Y97000D02*
D03*
Y102905D02*
D03*
X276000Y97047D02*
D03*
Y102953D02*
D03*
X246500Y97047D02*
D03*
Y102953D02*
D03*
X218000Y97000D02*
D03*
Y102905D02*
D03*
D28*
X138953Y171095D02*
D03*
X133047D02*
D03*
D29*
X188000Y31095D02*
D03*
Y41094D02*
D03*
Y11095D02*
D03*
Y21094D02*
D03*
X125500Y31000D02*
D03*
Y41000D02*
D03*
Y11000D02*
D03*
Y21000D02*
D03*
X42000Y121095D02*
D03*
X52000D02*
D03*
X22000D02*
D03*
X32000D02*
D03*
D30*
X152000Y73000D02*
D03*
X162000D02*
D03*
X112000Y125094D02*
D03*
Y115094D02*
D03*
D31*
X59622Y171095D02*
D03*
X36000D02*
D03*
D32*
X49779Y152787D02*
D03*
D33*
X245900Y46400D02*
D03*
X275400D02*
D03*
X71000Y85000D02*
D03*
X217300Y46400D02*
D03*
X104000Y154500D02*
D03*
X135000Y141000D02*
D03*
X304000Y46500D02*
D03*
X54000Y9500D02*
D03*
X154000Y99000D02*
D03*
D34*
X92500Y79500D02*
D03*
X120500Y59500D02*
D03*
X74000Y64500D02*
D03*
X65500Y73000D02*
D03*
X98500Y74500D02*
D03*
X120500Y68000D02*
D03*
M02*
