G04*
G04 #@! TF.GenerationSoftware,Altium Limited,Altium Designer,21.6.4 (81)*
G04*
G04 Layer_Color=8421504*
%FSLAX25Y25*%
%MOIN*%
G70*
G04*
G04 #@! TF.SameCoordinates,79665CF2-DF80-4226-BAFE-3DB74E170362*
G04*
G04*
G04 #@! TF.FilePolarity,Positive*
G04*
G01*
G75*
G04:AMPARAMS|DCode=17|XSize=48.82mil|YSize=23.23mil|CornerRadius=5.81mil|HoleSize=0mil|Usage=FLASHONLY|Rotation=0.000|XOffset=0mil|YOffset=0mil|HoleType=Round|Shape=RoundedRectangle|*
%AMROUNDEDRECTD17*
21,1,0.04882,0.01161,0,0,0.0*
21,1,0.03720,0.02323,0,0,0.0*
1,1,0.01161,0.01860,-0.00581*
1,1,0.01161,-0.01860,-0.00581*
1,1,0.01161,-0.01860,0.00581*
1,1,0.01161,0.01860,0.00581*
%
%ADD17ROUNDEDRECTD17*%
G04:AMPARAMS|DCode=18|XSize=57.87mil|YSize=11.02mil|CornerRadius=1.38mil|HoleSize=0mil|Usage=FLASHONLY|Rotation=270.000|XOffset=0mil|YOffset=0mil|HoleType=Round|Shape=RoundedRectangle|*
%AMROUNDEDRECTD18*
21,1,0.05787,0.00827,0,0,270.0*
21,1,0.05512,0.01102,0,0,270.0*
1,1,0.00276,-0.00413,-0.02756*
1,1,0.00276,-0.00413,0.02756*
1,1,0.00276,0.00413,0.02756*
1,1,0.00276,0.00413,-0.02756*
%
%ADD18ROUNDEDRECTD18*%
%ADD19R,0.07100X0.04400*%
%ADD20R,0.06200X0.04750*%
%ADD21R,0.03150X0.03150*%
G04:AMPARAMS|DCode=22|XSize=63.39mil|YSize=23.23mil|CornerRadius=2.9mil|HoleSize=0mil|Usage=FLASHONLY|Rotation=180.000|XOffset=0mil|YOffset=0mil|HoleType=Round|Shape=RoundedRectangle|*
%AMROUNDEDRECTD22*
21,1,0.06339,0.01742,0,0,180.0*
21,1,0.05758,0.02323,0,0,180.0*
1,1,0.00581,-0.02879,0.00871*
1,1,0.00581,0.02879,0.00871*
1,1,0.00581,0.02879,-0.00871*
1,1,0.00581,-0.02879,-0.00871*
%
%ADD22ROUNDEDRECTD22*%
%ADD23R,0.04400X0.07100*%
D17*
X144402Y112534D02*
D03*
Y105054D02*
D03*
X152710Y108794D02*
D03*
D18*
X125816Y121607D02*
D03*
X123848D02*
D03*
X121879D02*
D03*
X119911D02*
D03*
X117942D02*
D03*
Y104678D02*
D03*
X119911D02*
D03*
X121879D02*
D03*
X123848D02*
D03*
X125816D02*
D03*
D19*
X102000Y121900D02*
D03*
Y110100D02*
D03*
X110000Y76100D02*
D03*
Y87900D02*
D03*
X150000Y169900D02*
D03*
Y158100D02*
D03*
X197570Y99956D02*
D03*
Y88156D02*
D03*
Y59100D02*
D03*
Y70900D02*
D03*
X62000Y146100D02*
D03*
Y157900D02*
D03*
Y128146D02*
D03*
Y116346D02*
D03*
X11837Y161900D02*
D03*
Y150100D02*
D03*
Y125900D02*
D03*
Y114100D02*
D03*
Y90282D02*
D03*
Y78482D02*
D03*
X62000Y84100D02*
D03*
Y95900D02*
D03*
X82000Y32100D02*
D03*
Y43900D02*
D03*
X150000Y32100D02*
D03*
Y43900D02*
D03*
D20*
X78400Y83650D02*
D03*
X97600D02*
D03*
X78400Y96350D02*
D03*
X97600D02*
D03*
X78400Y133650D02*
D03*
X97600D02*
D03*
X78400Y146350D02*
D03*
X97600D02*
D03*
X28400Y149650D02*
D03*
X47600D02*
D03*
X28400Y162350D02*
D03*
X47600D02*
D03*
X28400Y113650D02*
D03*
X47600D02*
D03*
X28400Y126350D02*
D03*
X47600D02*
D03*
X28400Y77650D02*
D03*
X47600D02*
D03*
X28400Y90350D02*
D03*
X47600D02*
D03*
D21*
X90953Y115000D02*
D03*
X85047D02*
D03*
D22*
X154508Y75740D02*
D03*
Y72000D02*
D03*
Y68260D02*
D03*
X145492D02*
D03*
Y72000D02*
D03*
Y75740D02*
D03*
D23*
X117600Y68000D02*
D03*
X129400D02*
D03*
X51900Y176000D02*
D03*
X40100D02*
D03*
X155900Y130000D02*
D03*
X144100D02*
D03*
M02*
