M48
;Layer_Color=9474304
;FILE_FORMAT=2:5
INCH,LZ
;TYPE=PLATED
T1F00S00C0.01300
T2F00S00C0.02165
T3F00S00C0.03543
T4F00S00C0.04000
T5F00S00C0.04016
T6F00S00C0.04331
%
T01
X0094Y0049
Y0054
X0157Y0039
X01615
X0162Y0058
X01665
X0144Y0062
X01395
X0135Y00715
X0138Y0076
X0132
X01185Y0084
X0117Y00625
X0104Y0064
X00995
X00915Y00785
X0069Y0096
X007Y0128
X00695Y0158
X01035Y01385
X0122Y0141
X01295Y01215
X0156Y0123
X01585Y0109
X0152Y008
X0095Y01215
X00475Y01075
Y01435
X0012Y0144
Y0108
Y0072
X0043Y0071
T02
X0215244Y0063228
X0220756
T03
X0218Y0142205
Y0167795
T04
X0037Y004
X0047
X0057
X0067
X01045
X01145
X01245
X01345
X0172
X0182
X0192
X0202
T05
X002Y001
X003
T06
X0051Y001
X0061
X0071
X0081
X0091
X0101
X0111
X0121
X0141
X0151
X0161
X0171
X0181
X0191
X0178Y007
Y008
Y009
Y01
Y0145
Y0155
Y0165
X0181Y02
X0191
X0171
X0161
X0151
X0141
X0131
X0121
X0105
X0095
X0085
X0075
X0065
X0055
X0045
X0035
X0025
X0015
M30
