G04*
G04 #@! TF.GenerationSoftware,Altium Limited,Altium Designer,21.6.4 (81)*
G04*
G04 Layer_Physical_Order=4*
G04 Layer_Color=16711680*
%FSLAX25Y25*%
%MOIN*%
G70*
G04*
G04 #@! TF.SameCoordinates,79665CF2-DF80-4226-BAFE-3DB74E170362*
G04*
G04*
G04 #@! TF.FilePolarity,Positive*
G04*
G01*
G75*
%ADD12C,0.00600*%
%ADD39C,0.06000*%
%ADD40C,0.05543*%
%ADD41C,0.03543*%
%ADD42C,0.07000*%
%ADD43C,0.06496*%
%ADD44C,0.06378*%
%ADD45C,0.02500*%
D12*
X156000Y58000D02*
X162000D01*
X138000Y76000D02*
X156000Y58000D01*
X153850Y40150D02*
X155336D01*
X156486Y39000D01*
X157000D01*
X94000Y54000D02*
X104000Y64000D01*
X144000Y50000D02*
Y62000D01*
Y50000D02*
X153850Y40150D01*
D39*
X191000Y200000D02*
D03*
X181000D02*
D03*
X171000D02*
D03*
X161000D02*
D03*
X151000D02*
D03*
X141000D02*
D03*
X131000D02*
D03*
X121000D02*
D03*
X191000Y10000D02*
D03*
X181000D02*
D03*
X171000D02*
D03*
X161000D02*
D03*
X141000D02*
D03*
X151000D02*
D03*
X15000Y200000D02*
D03*
X25000D02*
D03*
X35000D02*
D03*
X45000D02*
D03*
X55000D02*
D03*
X65000D02*
D03*
X75000D02*
D03*
X85000D02*
D03*
X95000D02*
D03*
X105000D02*
D03*
X51000Y10000D02*
D03*
X61000D02*
D03*
X71000D02*
D03*
X81000D02*
D03*
X91000D02*
D03*
X101000D02*
D03*
X111000D02*
D03*
X121000D02*
D03*
X178000Y70000D02*
D03*
Y80000D02*
D03*
Y90000D02*
D03*
Y100000D02*
D03*
D40*
X218000Y142205D02*
D03*
Y167795D02*
D03*
D41*
X220756Y63228D02*
D03*
X215244D02*
D03*
D42*
X192000Y40000D02*
D03*
X202000D02*
D03*
X172000D02*
D03*
X182000D02*
D03*
X114500D02*
D03*
X104500D02*
D03*
X134500D02*
D03*
X124500D02*
D03*
X47000D02*
D03*
X37000D02*
D03*
X67000D02*
D03*
X57000D02*
D03*
D43*
X178000Y165000D02*
D03*
Y155000D02*
D03*
Y145000D02*
D03*
D44*
X20000Y10000D02*
D03*
X30000D02*
D03*
D45*
X138000Y76000D02*
D03*
X122000Y141000D02*
D03*
X157000Y39000D02*
D03*
X161500D02*
D03*
X43000Y71000D02*
D03*
X70000Y128000D02*
D03*
X117000Y62500D02*
D03*
X104000Y64000D02*
D03*
X99500D02*
D03*
X139500Y62000D02*
D03*
X144000D02*
D03*
X118500Y84000D02*
D03*
X135000Y71500D02*
D03*
X129500Y121500D02*
D03*
X69000Y96000D02*
D03*
X152000Y80000D02*
D03*
X158500Y109000D02*
D03*
X156000Y123000D02*
D03*
X47500Y107500D02*
D03*
X94000Y49000D02*
D03*
X166500Y58000D02*
D03*
X91500Y78500D02*
D03*
X95000Y121500D02*
D03*
X103500Y138500D02*
D03*
X69500Y158000D02*
D03*
X47500Y143500D02*
D03*
X12000Y144000D02*
D03*
Y108000D02*
D03*
Y72000D02*
D03*
X132000Y76000D02*
D03*
X162000Y58000D02*
D03*
X94000Y54000D02*
D03*
M02*
