G04*
G04 #@! TF.GenerationSoftware,Altium Limited,Altium Designer,21.6.4 (81)*
G04*
G04 Layer_Color=8388736*
%FSLAX25Y25*%
%MOIN*%
G70*
G04*
G04 #@! TF.SameCoordinates,79665CF2-DF80-4226-BAFE-3DB74E170362*
G04*
G04*
G04 #@! TF.FilePolarity,Negative*
G04*
G01*
G75*
%ADD24C,0.00000*%
G04:AMPARAMS|DCode=25|XSize=56.82mil|YSize=31.23mil|CornerRadius=9.81mil|HoleSize=0mil|Usage=FLASHONLY|Rotation=0.000|XOffset=0mil|YOffset=0mil|HoleType=Round|Shape=RoundedRectangle|*
%AMROUNDEDRECTD25*
21,1,0.05682,0.01161,0,0,0.0*
21,1,0.03720,0.03123,0,0,0.0*
1,1,0.01961,0.01860,-0.00581*
1,1,0.01961,-0.01860,-0.00581*
1,1,0.01961,-0.01860,0.00581*
1,1,0.01961,0.01860,0.00581*
%
%ADD25ROUNDEDRECTD25*%
G04:AMPARAMS|DCode=26|XSize=65.87mil|YSize=19.02mil|CornerRadius=5.38mil|HoleSize=0mil|Usage=FLASHONLY|Rotation=270.000|XOffset=0mil|YOffset=0mil|HoleType=Round|Shape=RoundedRectangle|*
%AMROUNDEDRECTD26*
21,1,0.06587,0.00827,0,0,270.0*
21,1,0.05512,0.01902,0,0,270.0*
1,1,0.01076,-0.00413,-0.02756*
1,1,0.01076,-0.00413,0.02756*
1,1,0.01076,0.00413,0.02756*
1,1,0.01076,0.00413,-0.02756*
%
%ADD26ROUNDEDRECTD26*%
%ADD27R,0.07900X0.05200*%
%ADD28R,0.07000X0.05550*%
%ADD29R,0.03950X0.03950*%
G04:AMPARAMS|DCode=30|XSize=71.39mil|YSize=31.23mil|CornerRadius=6.9mil|HoleSize=0mil|Usage=FLASHONLY|Rotation=180.000|XOffset=0mil|YOffset=0mil|HoleType=Round|Shape=RoundedRectangle|*
%AMROUNDEDRECTD30*
21,1,0.07139,0.01742,0,0,180.0*
21,1,0.05758,0.03123,0,0,180.0*
1,1,0.01381,-0.02879,0.00871*
1,1,0.01381,0.02879,0.00871*
1,1,0.01381,0.02879,-0.00871*
1,1,0.01381,-0.02879,-0.00871*
%
%ADD30ROUNDEDRECTD30*%
%ADD31R,0.05200X0.07900*%
%ADD32C,0.06800*%
%ADD33C,0.06343*%
%ADD34C,0.04343*%
%ADD35C,0.07800*%
%ADD36C,0.07296*%
%ADD37C,0.07178*%
%ADD38C,0.03300*%
D24*
X23390Y10000D02*
G03*
X23390Y10000I-3390J0D01*
G01*
X33390D02*
G03*
X33390Y10000I-3390J0D01*
G01*
D25*
X144402Y112534D02*
D03*
Y105054D02*
D03*
X152710Y108794D02*
D03*
D26*
X125816Y121607D02*
D03*
X123848D02*
D03*
X121879D02*
D03*
X119911D02*
D03*
X117942D02*
D03*
Y104678D02*
D03*
X119911D02*
D03*
X121879D02*
D03*
X123848D02*
D03*
X125816D02*
D03*
D27*
X102000Y121900D02*
D03*
Y110100D02*
D03*
X110000Y76100D02*
D03*
Y87900D02*
D03*
X150000Y169900D02*
D03*
Y158100D02*
D03*
X197570Y99956D02*
D03*
Y88156D02*
D03*
Y59100D02*
D03*
Y70900D02*
D03*
X62000Y146100D02*
D03*
Y157900D02*
D03*
Y128146D02*
D03*
Y116346D02*
D03*
X11837Y161900D02*
D03*
Y150100D02*
D03*
Y125900D02*
D03*
Y114100D02*
D03*
Y90282D02*
D03*
Y78482D02*
D03*
X62000Y84100D02*
D03*
Y95900D02*
D03*
X82000Y32100D02*
D03*
Y43900D02*
D03*
X150000Y32100D02*
D03*
Y43900D02*
D03*
D28*
X78400Y83650D02*
D03*
X97600D02*
D03*
X78400Y96350D02*
D03*
X97600D02*
D03*
X78400Y133650D02*
D03*
X97600D02*
D03*
X78400Y146350D02*
D03*
X97600D02*
D03*
X28400Y149650D02*
D03*
X47600D02*
D03*
X28400Y162350D02*
D03*
X47600D02*
D03*
X28400Y113650D02*
D03*
X47600D02*
D03*
X28400Y126350D02*
D03*
X47600D02*
D03*
X28400Y77650D02*
D03*
X47600D02*
D03*
X28400Y90350D02*
D03*
X47600D02*
D03*
D29*
X90953Y115000D02*
D03*
X85047D02*
D03*
D30*
X154508Y75740D02*
D03*
Y72000D02*
D03*
Y68260D02*
D03*
X145492D02*
D03*
Y72000D02*
D03*
Y75740D02*
D03*
D31*
X117600Y68000D02*
D03*
X129400D02*
D03*
X51900Y176000D02*
D03*
X40100D02*
D03*
X155900Y130000D02*
D03*
X144100D02*
D03*
D32*
X191000Y200000D02*
D03*
X181000D02*
D03*
X171000D02*
D03*
X161000D02*
D03*
X151000D02*
D03*
X141000D02*
D03*
X131000D02*
D03*
X121000D02*
D03*
X191000Y10000D02*
D03*
X181000D02*
D03*
X171000D02*
D03*
X161000D02*
D03*
X141000D02*
D03*
X151000D02*
D03*
X15000Y200000D02*
D03*
X25000D02*
D03*
X35000D02*
D03*
X45000D02*
D03*
X55000D02*
D03*
X65000D02*
D03*
X75000D02*
D03*
X85000D02*
D03*
X95000D02*
D03*
X105000D02*
D03*
X51000Y10000D02*
D03*
X61000D02*
D03*
X71000D02*
D03*
X81000D02*
D03*
X91000D02*
D03*
X101000D02*
D03*
X111000D02*
D03*
X121000D02*
D03*
X178000Y70000D02*
D03*
Y80000D02*
D03*
Y90000D02*
D03*
Y100000D02*
D03*
D33*
X218000Y142205D02*
D03*
Y167795D02*
D03*
D34*
X220756Y63228D02*
D03*
X215244D02*
D03*
D35*
X192000Y40000D02*
D03*
X202000D02*
D03*
X172000D02*
D03*
X182000D02*
D03*
X114500D02*
D03*
X104500D02*
D03*
X134500D02*
D03*
X124500D02*
D03*
X47000D02*
D03*
X37000D02*
D03*
X67000D02*
D03*
X57000D02*
D03*
D36*
X178000Y165000D02*
D03*
Y155000D02*
D03*
Y145000D02*
D03*
D37*
X20000Y10000D02*
D03*
X30000D02*
D03*
D38*
X138000Y76000D02*
D03*
X122000Y141000D02*
D03*
X157000Y39000D02*
D03*
X161500D02*
D03*
X43000Y71000D02*
D03*
X70000Y128000D02*
D03*
X117000Y62500D02*
D03*
X104000Y64000D02*
D03*
X99500D02*
D03*
X139500Y62000D02*
D03*
X144000D02*
D03*
X118500Y84000D02*
D03*
X135000Y71500D02*
D03*
X129500Y121500D02*
D03*
X69000Y96000D02*
D03*
X152000Y80000D02*
D03*
X158500Y109000D02*
D03*
X156000Y123000D02*
D03*
X47500Y107500D02*
D03*
X94000Y49000D02*
D03*
X166500Y58000D02*
D03*
X91500Y78500D02*
D03*
X95000Y121500D02*
D03*
X103500Y138500D02*
D03*
X69500Y158000D02*
D03*
X47500Y143500D02*
D03*
X12000Y144000D02*
D03*
Y108000D02*
D03*
Y72000D02*
D03*
X132000Y76000D02*
D03*
X162000Y58000D02*
D03*
X94000Y54000D02*
D03*
M02*
