G04*
G04 #@! TF.GenerationSoftware,Altium Limited,Altium Designer,21.6.4 (81)*
G04*
G04 Layer_Physical_Order=1*
G04 Layer_Color=255*
%FSLAX25Y25*%
%MOIN*%
G70*
G04*
G04 #@! TF.SameCoordinates,79665CF2-DF80-4226-BAFE-3DB74E170362*
G04*
G04*
G04 #@! TF.FilePolarity,Positive*
G04*
G01*
G75*
%ADD12C,0.00600*%
%ADD14C,0.02000*%
G04:AMPARAMS|DCode=17|XSize=48.82mil|YSize=23.23mil|CornerRadius=5.81mil|HoleSize=0mil|Usage=FLASHONLY|Rotation=0.000|XOffset=0mil|YOffset=0mil|HoleType=Round|Shape=RoundedRectangle|*
%AMROUNDEDRECTD17*
21,1,0.04882,0.01161,0,0,0.0*
21,1,0.03720,0.02323,0,0,0.0*
1,1,0.01161,0.01860,-0.00581*
1,1,0.01161,-0.01860,-0.00581*
1,1,0.01161,-0.01860,0.00581*
1,1,0.01161,0.01860,0.00581*
%
%ADD17ROUNDEDRECTD17*%
G04:AMPARAMS|DCode=18|XSize=57.87mil|YSize=11.02mil|CornerRadius=1.38mil|HoleSize=0mil|Usage=FLASHONLY|Rotation=270.000|XOffset=0mil|YOffset=0mil|HoleType=Round|Shape=RoundedRectangle|*
%AMROUNDEDRECTD18*
21,1,0.05787,0.00827,0,0,270.0*
21,1,0.05512,0.01102,0,0,270.0*
1,1,0.00276,-0.00413,-0.02756*
1,1,0.00276,-0.00413,0.02756*
1,1,0.00276,0.00413,0.02756*
1,1,0.00276,0.00413,-0.02756*
%
%ADD18ROUNDEDRECTD18*%
%ADD19R,0.07100X0.04400*%
%ADD20R,0.06200X0.04750*%
%ADD21R,0.03150X0.03150*%
G04:AMPARAMS|DCode=22|XSize=63.39mil|YSize=23.23mil|CornerRadius=2.9mil|HoleSize=0mil|Usage=FLASHONLY|Rotation=180.000|XOffset=0mil|YOffset=0mil|HoleType=Round|Shape=RoundedRectangle|*
%AMROUNDEDRECTD22*
21,1,0.06339,0.01742,0,0,180.0*
21,1,0.05758,0.02323,0,0,180.0*
1,1,0.00581,-0.02879,0.00871*
1,1,0.00581,0.02879,0.00871*
1,1,0.00581,0.02879,-0.00871*
1,1,0.00581,-0.02879,-0.00871*
%
%ADD22ROUNDEDRECTD22*%
%ADD23R,0.04400X0.07100*%
%ADD39C,0.06000*%
%ADD40C,0.05543*%
%ADD41C,0.03543*%
%ADD42C,0.07000*%
%ADD43C,0.06496*%
%ADD44C,0.06378*%
%ADD45C,0.02500*%
D12*
X203198Y70900D02*
X210870Y63228D01*
X197570Y70900D02*
X203198D01*
X197570D02*
Y88156D01*
X138130Y75870D02*
X145362D01*
X138000Y76000D02*
X138130Y75870D01*
X121940Y121668D02*
Y140940D01*
X122000Y141000D01*
X121879Y121607D02*
X121940Y121668D01*
X156686Y39000D02*
X157000D01*
X154886Y40363D02*
X155323D01*
X156686Y39000D01*
X43000Y71000D02*
X44800Y72800D01*
Y75575D01*
X62146Y128000D02*
X70000D01*
X62000Y157900D02*
X62100Y158000D01*
X69500D01*
X117942Y108206D02*
X120208Y110472D01*
X117942Y104678D02*
Y108206D01*
X117000Y62500D02*
Y67400D01*
X104000Y64000D02*
X112600Y72600D01*
X117000Y67400D02*
X117600Y68000D01*
X144000Y62000D02*
X154247D01*
X110000Y76100D02*
X111350D01*
X118137Y82886D01*
Y83636D02*
X118500Y84000D01*
X118137Y82886D02*
Y83636D01*
X114850Y73361D02*
X114850D01*
X122441Y80953D02*
Y81148D01*
X122793Y81500D02*
X137000D01*
X122441Y81148D02*
X122793Y81500D01*
X114850Y73361D02*
X122441Y80953D01*
X114088Y72600D02*
X114850Y73361D01*
X137500Y82000D02*
X145231D01*
X137000Y81500D02*
X137500Y82000D01*
X112600Y72600D02*
X114088D01*
X135000Y71500D02*
X135250Y71750D01*
X145242D01*
X62000Y128146D02*
X62146Y128000D01*
X62100Y96000D02*
X69000D01*
X62000Y95900D02*
X62100Y96000D01*
X125923Y121500D02*
X129500D01*
X125816Y121607D02*
X125923Y121500D01*
X11837Y78482D02*
X12000Y78319D01*
Y72000D02*
Y78319D01*
Y144000D02*
Y149937D01*
X11837Y150100D02*
X12000Y149937D01*
Y108000D02*
Y113937D01*
X11837Y114100D02*
X12000Y113937D01*
X44800Y75575D02*
X46875Y77650D01*
X47600D01*
X47500Y113550D02*
X47600Y113650D01*
X47500Y107500D02*
Y113550D01*
Y143500D02*
Y149550D01*
X47600Y149650D01*
X152710Y108794D02*
X152813Y108897D01*
X158397D01*
X158500Y109000D01*
X156000Y123000D02*
Y129900D01*
X155900Y130000D02*
X156000Y129900D01*
X98325Y133650D02*
X103175Y138500D01*
X103500D01*
X97600Y133650D02*
X98325D01*
X101600Y121500D02*
X102000Y121900D01*
X95000Y121500D02*
X101600D01*
X91725Y78500D02*
X96875Y83650D01*
X91500Y78500D02*
X91725D01*
X96875Y83650D02*
X97600D01*
X152000Y80000D02*
X154508Y77492D01*
Y75740D02*
Y77492D01*
X145242Y71750D02*
X145492Y72000D01*
X151149Y107954D02*
X151990Y108794D01*
X152710D01*
X117691Y121900D02*
X117942Y121649D01*
X102000Y121900D02*
X117691D01*
X117942Y121607D02*
Y121649D01*
X102000Y110100D02*
X111638D01*
X119793Y118256D01*
X95750Y115000D02*
X100650Y110100D01*
X90953Y115000D02*
X95750D01*
X100650Y110100D02*
X102000D01*
X111350Y87900D02*
X122000Y98550D01*
Y104678D01*
X105112Y47400D02*
X158206D01*
X164550Y41056D01*
Y30550D02*
Y41056D01*
X151000Y17000D02*
X164550Y30550D01*
X139154Y88077D02*
X145231Y82000D01*
X149961Y77270D01*
X145362Y75870D02*
X145492Y75740D01*
X162000Y50000D02*
Y58000D01*
Y50000D02*
X172000Y40000D01*
X153250Y42000D02*
X154886Y40363D01*
X151000Y10000D02*
Y17000D01*
X150000Y43900D02*
X153250Y42000D01*
X150000Y39689D02*
Y43900D01*
Y39689D02*
X154850Y34839D01*
X137176Y88077D02*
X139154D01*
X123848Y104678D02*
X123965Y104561D01*
Y101288D02*
Y104561D01*
Y101288D02*
X137176Y88077D01*
X83350Y43900D02*
X101612D01*
X149961Y70547D02*
Y77270D01*
X93450Y54000D02*
X94000D01*
X82000Y43900D02*
X83350D01*
X93450Y54000D01*
X158046Y70721D02*
X158977Y69790D01*
X157794Y70721D02*
X158046D01*
X156516Y72000D02*
X157794Y70721D01*
X154247Y62000D02*
X158977Y66730D01*
X154508Y72000D02*
X156516D01*
X158977Y66730D02*
Y69790D01*
X55000Y200000D02*
X90200Y164800D01*
X150889D01*
X160688Y155000D01*
X178000D01*
X216662Y167795D02*
X218000D01*
X214910Y169548D02*
X216662Y167795D01*
X157237Y169548D02*
X214910D01*
X118600Y166400D02*
X154088D01*
X85000Y200000D02*
X118600Y166400D01*
X154088D02*
X157237Y169548D01*
X141000Y177550D02*
X148650Y169900D01*
X150000D01*
X141000Y177550D02*
Y200000D01*
X149961Y70547D02*
X151388Y69121D01*
X146570Y89677D02*
X158977Y77270D01*
Y74210D02*
Y77270D01*
X157794Y73279D02*
X158046D01*
X151388Y69121D02*
X153647D01*
X158046Y73279D02*
X158977Y74210D01*
X153647Y69121D02*
X154508Y68260D01*
X156516Y72000D02*
X157794Y73279D01*
X138475Y89677D02*
X146570D01*
X125816Y102336D02*
X138475Y89677D01*
X125816Y102336D02*
Y104678D01*
X120028Y104795D02*
Y108029D01*
X137095Y102592D02*
X147041D01*
X151149Y106701D02*
Y107954D01*
X147041Y102592D02*
X151149Y106701D01*
X120028Y108029D02*
X120870Y108872D01*
X120208Y110472D02*
X137704D01*
X120870Y108872D02*
X130816D01*
X119911Y104678D02*
X120028Y104795D01*
X137704Y110472D02*
X143122Y105054D01*
X130816Y108872D02*
X137095Y102592D01*
X143122Y105054D02*
X144402D01*
X144100Y130000D02*
X144402Y129699D01*
Y112534D02*
Y129699D01*
X210870Y63228D02*
X215244D01*
X101612Y43900D02*
X105112Y47400D01*
X154850Y29362D02*
Y34839D01*
X141000Y10000D02*
Y15511D01*
X154850Y29362D01*
X149100Y44800D02*
X150000Y43900D01*
X111522Y44800D02*
X149100D01*
X107946Y41225D02*
X111522Y44800D01*
X105725Y41225D02*
X107946D01*
X104500Y40000D02*
X105725Y41225D01*
X69888Y43900D02*
X82000D01*
X68988Y44800D02*
X69888Y43900D01*
X41800Y44800D02*
X68988D01*
X37000Y40000D02*
X41800Y44800D01*
X171000Y10000D02*
X171500Y10500D01*
Y39500D01*
X172000Y40000D01*
X191320Y46108D02*
Y57200D01*
X186800Y15800D02*
Y41588D01*
X191320Y46108D01*
X193220Y59100D02*
X194570D01*
X191320Y57200D02*
X193220Y59100D01*
X181000Y10000D02*
X186800Y15800D01*
X178000Y70000D02*
X184000Y64000D01*
X202000D02*
X206800Y59200D01*
Y25800D02*
Y59200D01*
X184000Y64000D02*
X202000D01*
X191000Y10000D02*
X206800Y25800D01*
X119793Y118256D02*
Y121490D01*
X119911Y121607D01*
X97600Y96350D02*
Y103365D01*
X88078Y112887D02*
X97600Y103365D01*
X88078Y112887D02*
Y116957D01*
X78400Y126635D02*
X88078Y116957D01*
X78400Y126635D02*
Y133650D01*
X136900Y146350D02*
X148650Y158100D01*
X150000D01*
X97600Y146350D02*
X136900D01*
X50700Y201781D02*
X53219Y204300D01*
X50700Y191116D02*
Y201781D01*
X100700Y204300D02*
X105000Y200000D01*
X50700Y191116D02*
X51900Y189916D01*
X53219Y204300D02*
X100700D01*
X51900Y176000D02*
Y189916D01*
X40100Y174650D02*
X47600Y167150D01*
X40100Y174650D02*
Y176000D01*
X47600Y162350D02*
Y167150D01*
X28400Y144825D02*
X46875Y126350D01*
X47600D01*
X28400Y144825D02*
Y149650D01*
Y108825D02*
Y113650D01*
Y108825D02*
X46875Y90350D01*
X47600D01*
D14*
X192596Y103580D02*
X196220Y99956D01*
X192596Y103580D02*
Y103974D01*
X196220Y99956D02*
X197570D01*
X167785Y128785D02*
Y134785D01*
Y89785D02*
Y128785D01*
X192596Y103974D01*
X121000Y58195D02*
X153694D01*
X37806D02*
X121000D01*
Y58250D01*
X129400Y66650D02*
Y68000D01*
X121000Y58250D02*
X129400Y66650D01*
Y68000D02*
X143224D01*
X110000Y87900D02*
X111350D01*
X167785Y134785D02*
X178000Y145000D01*
X167785Y72285D02*
Y89785D01*
X62000Y116346D02*
X73838D01*
X55172D02*
X62000D01*
X153694Y58195D02*
X167785Y72285D01*
X133100Y32100D02*
X150000D01*
X167785Y89785D02*
X178000Y100000D01*
X143484Y68260D02*
X145492D01*
X143224Y68000D02*
X143484Y68260D01*
X37806Y58195D02*
X54000Y74389D01*
X20000Y40389D02*
X37806Y58195D01*
X102700Y80447D02*
Y81950D01*
X96643Y74389D02*
X102700Y80447D01*
X54000Y74389D02*
X96643D01*
X108650Y87900D02*
X110000D01*
X102700Y81950D02*
X108650Y87900D01*
X75184Y115000D02*
X85047D01*
X73838Y116346D02*
X75184Y115000D01*
X111000Y10000D02*
X133100Y32100D01*
X81000Y10000D02*
Y31100D01*
X82000Y32100D01*
X78275Y146225D02*
X78400Y146350D01*
X62000Y146100D02*
X62125Y146225D01*
X78275D01*
X59450Y143550D02*
Y144900D01*
X54000Y115174D02*
Y138100D01*
X60650Y146100D02*
X62000D01*
X59450Y144900D02*
X60650Y146100D01*
X54000Y138100D02*
X59450Y143550D01*
X54000Y82928D02*
Y115174D01*
X55172Y116346D01*
Y84100D02*
X62000D01*
X54000Y82928D02*
X55172Y84100D01*
X54000Y74389D02*
Y82928D01*
X63350Y84100D02*
X74225Y94975D01*
X77025D01*
X78400Y96350D01*
X62000Y84100D02*
X63350D01*
X20000Y10000D02*
Y40389D01*
X28175Y162125D02*
X28400Y162350D01*
X11837Y161900D02*
X12062Y162125D01*
X28175D01*
X9287Y160700D02*
X10487Y161900D01*
X4000Y124000D02*
Y154063D01*
X10487Y161900D02*
X11837D01*
X9287Y159350D02*
Y160700D01*
X4000Y154063D02*
X9287Y159350D01*
X28175Y126125D02*
X28400Y126350D01*
X11837Y125900D02*
X12062Y126125D01*
X28175D01*
X11737Y126000D02*
X11837Y125900D01*
X6000Y126000D02*
X11737D01*
X4000Y124000D02*
X6000Y126000D01*
X4000Y88828D02*
Y124000D01*
X11871Y90316D02*
X27641D01*
X27675Y90350D01*
X11837Y90282D02*
X11871Y90316D01*
X11671Y90116D02*
X11837Y90282D01*
X4000Y26000D02*
Y88828D01*
X5287Y90116D02*
X11671D01*
X4000Y88828D02*
X5287Y90116D01*
X4000Y26000D02*
X20000Y10000D01*
X27675Y90350D02*
X28400D01*
X30000Y10000D02*
X51000D01*
X106000Y5000D02*
X111000Y10000D01*
X86000Y5000D02*
X106000D01*
X81000Y10000D02*
X86000Y5000D01*
X51000Y10000D02*
X56000Y5000D01*
X76000D01*
X81000Y10000D01*
D17*
X144402Y112534D02*
D03*
Y105054D02*
D03*
X152710Y108794D02*
D03*
D18*
X125816Y121607D02*
D03*
X123848D02*
D03*
X121879D02*
D03*
X119911D02*
D03*
X117942D02*
D03*
Y104678D02*
D03*
X119911D02*
D03*
X121879D02*
D03*
X123848D02*
D03*
X125816D02*
D03*
D19*
X102000Y121900D02*
D03*
Y110100D02*
D03*
X110000Y76100D02*
D03*
Y87900D02*
D03*
X150000Y169900D02*
D03*
Y158100D02*
D03*
X197570Y99956D02*
D03*
Y88156D02*
D03*
Y59100D02*
D03*
Y70900D02*
D03*
X62000Y146100D02*
D03*
Y157900D02*
D03*
Y128146D02*
D03*
Y116346D02*
D03*
X11837Y161900D02*
D03*
Y150100D02*
D03*
Y125900D02*
D03*
Y114100D02*
D03*
Y90282D02*
D03*
Y78482D02*
D03*
X62000Y84100D02*
D03*
Y95900D02*
D03*
X82000Y32100D02*
D03*
Y43900D02*
D03*
X150000Y32100D02*
D03*
Y43900D02*
D03*
D20*
X78400Y83650D02*
D03*
X97600D02*
D03*
X78400Y96350D02*
D03*
X97600D02*
D03*
X78400Y133650D02*
D03*
X97600D02*
D03*
X78400Y146350D02*
D03*
X97600D02*
D03*
X28400Y149650D02*
D03*
X47600D02*
D03*
X28400Y162350D02*
D03*
X47600D02*
D03*
X28400Y113650D02*
D03*
X47600D02*
D03*
X28400Y126350D02*
D03*
X47600D02*
D03*
X28400Y77650D02*
D03*
X47600D02*
D03*
X28400Y90350D02*
D03*
X47600D02*
D03*
D21*
X90953Y115000D02*
D03*
X85047D02*
D03*
D22*
X154508Y75740D02*
D03*
Y72000D02*
D03*
Y68260D02*
D03*
X145492D02*
D03*
Y72000D02*
D03*
Y75740D02*
D03*
D23*
X117600Y68000D02*
D03*
X129400D02*
D03*
X51900Y176000D02*
D03*
X40100D02*
D03*
X155900Y130000D02*
D03*
X144100D02*
D03*
D39*
X191000Y200000D02*
D03*
X181000D02*
D03*
X171000D02*
D03*
X161000D02*
D03*
X151000D02*
D03*
X141000D02*
D03*
X131000D02*
D03*
X121000D02*
D03*
X191000Y10000D02*
D03*
X181000D02*
D03*
X171000D02*
D03*
X161000D02*
D03*
X141000D02*
D03*
X151000D02*
D03*
X15000Y200000D02*
D03*
X25000D02*
D03*
X35000D02*
D03*
X45000D02*
D03*
X55000D02*
D03*
X65000D02*
D03*
X75000D02*
D03*
X85000D02*
D03*
X95000D02*
D03*
X105000D02*
D03*
X51000Y10000D02*
D03*
X61000D02*
D03*
X71000D02*
D03*
X81000D02*
D03*
X91000D02*
D03*
X101000D02*
D03*
X111000D02*
D03*
X121000D02*
D03*
X178000Y70000D02*
D03*
Y80000D02*
D03*
Y90000D02*
D03*
Y100000D02*
D03*
D40*
X218000Y142205D02*
D03*
Y167795D02*
D03*
D41*
X220756Y63228D02*
D03*
X215244D02*
D03*
D42*
X192000Y40000D02*
D03*
X202000D02*
D03*
X172000D02*
D03*
X182000D02*
D03*
X114500D02*
D03*
X104500D02*
D03*
X134500D02*
D03*
X124500D02*
D03*
X47000D02*
D03*
X37000D02*
D03*
X67000D02*
D03*
X57000D02*
D03*
D43*
X178000Y165000D02*
D03*
Y155000D02*
D03*
Y145000D02*
D03*
D44*
X20000Y10000D02*
D03*
X30000D02*
D03*
D45*
X138000Y76000D02*
D03*
X122000Y141000D02*
D03*
X157000Y39000D02*
D03*
X161500D02*
D03*
X43000Y71000D02*
D03*
X70000Y128000D02*
D03*
X117000Y62500D02*
D03*
X104000Y64000D02*
D03*
X99500D02*
D03*
X139500Y62000D02*
D03*
X144000D02*
D03*
X118500Y84000D02*
D03*
X135000Y71500D02*
D03*
X129500Y121500D02*
D03*
X69000Y96000D02*
D03*
X152000Y80000D02*
D03*
X158500Y109000D02*
D03*
X156000Y123000D02*
D03*
X47500Y107500D02*
D03*
X94000Y49000D02*
D03*
X166500Y58000D02*
D03*
X91500Y78500D02*
D03*
X95000Y121500D02*
D03*
X103500Y138500D02*
D03*
X69500Y158000D02*
D03*
X47500Y143500D02*
D03*
X12000Y144000D02*
D03*
Y108000D02*
D03*
Y72000D02*
D03*
X132000Y76000D02*
D03*
X162000Y58000D02*
D03*
X94000Y54000D02*
D03*
M02*
