G04*
G04 #@! TF.GenerationSoftware,Altium Limited,Altium Designer,21.6.4 (81)*
G04*
G04 Layer_Color=16711935*
%FSLAX25Y25*%
%MOIN*%
G70*
G04*
G04 #@! TF.SameCoordinates,858BF902-78F9-450F-91F8-2C9066A697E3*
G04*
G04*
G04 #@! TF.FilePolarity,Negative*
G04*
G01*
G75*
%ADD41O,0.10249X0.05524*%
%ADD42C,0.05524*%
%ADD43C,0.06800*%
%ADD44C,0.07800*%
%ADD45C,0.03300*%
D41*
X16875Y175355D02*
D03*
X35575D02*
D03*
Y204645D02*
D03*
X16875D02*
D03*
D42*
X39125Y196221D02*
D03*
X34386Y193071D02*
D03*
Y186773D02*
D03*
X39125Y189921D02*
D03*
Y183623D02*
D03*
D43*
X256000Y201000D02*
D03*
X246000D02*
D03*
X236000D02*
D03*
X226000D02*
D03*
X216000D02*
D03*
X206000D02*
D03*
X196000D02*
D03*
X186000D02*
D03*
X80000D02*
D03*
X90000D02*
D03*
X100000D02*
D03*
X110000D02*
D03*
X120000D02*
D03*
X130000D02*
D03*
X140000D02*
D03*
X150000D02*
D03*
X160000D02*
D03*
X170000D02*
D03*
X116000Y11000D02*
D03*
X126000D02*
D03*
X136000D02*
D03*
X146000D02*
D03*
X156000D02*
D03*
X166000D02*
D03*
X176000D02*
D03*
X186000D02*
D03*
X206000D02*
D03*
X216000D02*
D03*
X226000D02*
D03*
X236000D02*
D03*
X246000D02*
D03*
X256000D02*
D03*
D44*
X14000Y64000D02*
D03*
Y54000D02*
D03*
Y84000D02*
D03*
Y74000D02*
D03*
Y133000D02*
D03*
Y123000D02*
D03*
Y153000D02*
D03*
Y143000D02*
D03*
X111000Y83000D02*
D03*
X121000D02*
D03*
X111000Y73000D02*
D03*
X121000D02*
D03*
X111000Y63000D02*
D03*
X121000D02*
D03*
D45*
X160000Y193000D02*
D03*
X150000D02*
D03*
X193000Y97500D02*
D03*
X201500Y73500D02*
D03*
X203500Y112500D02*
D03*
X44000Y179500D02*
D03*
X45500Y188000D02*
D03*
X181000Y144000D02*
D03*
X174000Y135500D02*
D03*
X138000Y138500D02*
D03*
X186000Y105000D02*
D03*
X134500Y134000D02*
D03*
X135000Y117000D02*
D03*
X37500Y54000D02*
D03*
X34500Y123500D02*
D03*
X52000D02*
D03*
X57000Y157000D02*
D03*
X256000Y71500D02*
D03*
X229000Y95000D02*
D03*
X228500Y88500D02*
D03*
X175000Y128500D02*
D03*
X135000Y96500D02*
D03*
X75500Y78500D02*
D03*
X119500Y172500D02*
D03*
X100500Y59500D02*
D03*
X203000Y80000D02*
D03*
X226500Y101000D02*
D03*
X130000Y20000D02*
D03*
X160000Y182000D02*
D03*
X150000D02*
D03*
X142000Y20000D02*
D03*
X219000Y55500D02*
D03*
X189000Y41500D02*
D03*
X155000Y57000D02*
D03*
X156150Y83500D02*
D03*
X112500Y120000D02*
D03*
X227500Y138500D02*
D03*
X192500Y120500D02*
D03*
X164000Y111500D02*
D03*
X184000Y120000D02*
D03*
X185000Y126000D02*
D03*
X156150Y100000D02*
D03*
X143000D02*
D03*
X131500Y112500D02*
D03*
X135000Y108000D02*
D03*
X136000Y152500D02*
D03*
X143000Y148000D02*
D03*
X177000Y90000D02*
D03*
X138000Y129000D02*
D03*
X116000Y138500D02*
D03*
Y159000D02*
D03*
X181500Y90000D02*
D03*
X173000Y94000D02*
D03*
X161500Y118500D02*
D03*
X111000Y138500D02*
D03*
Y159000D02*
D03*
X185000Y71500D02*
D03*
X159500Y149000D02*
D03*
X188000Y85000D02*
D03*
X192500Y87000D02*
D03*
X198000Y113000D02*
D03*
X210500Y182000D02*
D03*
X217500Y185500D02*
D03*
X227500Y132000D02*
D03*
X60000Y181000D02*
D03*
X185000Y130500D02*
D03*
X239500Y132000D02*
D03*
X84000Y157500D02*
D03*
X75000Y117000D02*
D03*
X250937Y86500D02*
D03*
X99500Y20500D02*
D03*
X84500D02*
D03*
X66500Y191000D02*
D03*
M02*
