M48
;Layer_Color=9474304
;FILE_FORMAT=2:5
INCH,LZ
;TYPE=PLATED
T1F00S00C0.01300
T2F00S00C0.03150
T4F00S00C0.04000
T5F00S00C0.04331
%
T01
X00375Y0054
X00845Y00205
X00995
X013Y002
X0142
X0189Y00415
X0219Y00555
X02285Y00885
X0229Y0095
X02265Y0101
X02275Y0132
Y01385
X02395Y0132
X0250937Y00865
X0256Y00715
X02175Y01855
X02105Y0182
X016
X015
Y0193
X016
X01595Y0149
X0143Y0148
X0136Y01525
X0138Y01385
X01345Y0134
X0138Y0129
X0135Y0117
X01315Y01125
X0135Y0108
Y00965
X0143Y01
X015615
Y00835
X0177Y009
X01815
X0188Y0085
X01925Y0087
X0193Y00975
X0186Y0105
X0184Y012
X0185Y0126
Y01305
X0175Y01285
X0174Y01355
X0181Y0144
X01925Y01205
X0198Y0113
X02035Y01125
X0203Y008
X02015Y00735
X0185Y00715
X0173Y0094
X0164Y01115
X01615Y01185
X01125Y012
X0111Y01385
X0116
Y0159
X0111
X01195Y01725
X0084Y01575
X0057Y0157
X006Y0181
X00665Y0191
X0075Y0117
X00755Y00785
X01005Y00595
X0155Y0057
X0052Y01235
X00345
X0044Y01795
X00455Y0188
T02
X0034386Y0186773
Y0193071
X0039125Y0196221
Y0189921
Y0183623
T04
X0014Y0054
Y0064
Y0074
Y0084
Y0123
Y0133
Y0143
Y0153
T05
X0116Y0011
X0126
X0136
X0146
X0156
X0166
X0176
X0186
X0206
X0216
X0226
X0236
X0246
X0256
Y0201
X0246
X0236
X0226
X0216
X0206
X0196
X0186
X017
X016
X015
X014
X013
X012
X011
X01
X009
X008
X0111Y0083
X0121
Y0073
X0111
Y0063
X0121
M30
