G04*
G04 #@! TF.GenerationSoftware,Altium Limited,Altium Designer,21.6.4 (81)*
G04*
G04 Layer_Color=8421504*
%FSLAX25Y25*%
%MOIN*%
G70*
G04*
G04 #@! TF.SameCoordinates,858BF902-78F9-450F-91F8-2C9066A697E3*
G04*
G04*
G04 #@! TF.FilePolarity,Positive*
G04*
G01*
G75*
%ADD17R,0.04400X0.07100*%
%ADD18R,0.03150X0.03150*%
%ADD19R,0.07100X0.04400*%
%ADD20R,0.05511X0.04724*%
%ADD21R,0.05800X0.02000*%
%ADD22R,0.02000X0.05800*%
%ADD23O,0.08661X0.02400*%
%ADD24R,0.04724X0.05906*%
%ADD25R,0.12200X0.06300*%
%ADD26R,0.03300X0.06300*%
%ADD27R,0.03150X0.03150*%
%ADD28R,0.03937X0.02756*%
D17*
X125603Y169756D02*
D03*
X137403D02*
D03*
X56600Y59500D02*
D03*
X68400D02*
D03*
X175900Y168000D02*
D03*
X164100D02*
D03*
X245900Y68500D02*
D03*
X234100D02*
D03*
X220400Y101000D02*
D03*
X208600D02*
D03*
X141100Y108000D02*
D03*
X152900D02*
D03*
X80600Y117000D02*
D03*
X92400D02*
D03*
X68900Y79000D02*
D03*
X57100D02*
D03*
D18*
X151453Y169500D02*
D03*
X145547D02*
D03*
D19*
X221500Y93400D02*
D03*
Y81600D02*
D03*
X211500Y93400D02*
D03*
Y81600D02*
D03*
X29000Y65900D02*
D03*
Y54100D02*
D03*
X26350Y134791D02*
D03*
Y122991D02*
D03*
X141000Y86900D02*
D03*
Y75100D02*
D03*
X150000Y147900D02*
D03*
Y136100D02*
D03*
X258000Y77200D02*
D03*
Y89000D02*
D03*
X187893Y147900D02*
D03*
Y136100D02*
D03*
X50000Y168900D02*
D03*
Y157100D02*
D03*
X52000Y140900D02*
D03*
Y129100D02*
D03*
X220500Y132100D02*
D03*
Y143900D02*
D03*
X246500Y132100D02*
D03*
Y143900D02*
D03*
D20*
X174662Y148693D02*
D03*
X166000D02*
D03*
X174661Y142000D02*
D03*
X166000D02*
D03*
X235670Y86457D02*
D03*
X244331D02*
D03*
X235670Y93150D02*
D03*
X244332D02*
D03*
D21*
X199393Y84500D02*
D03*
Y87600D02*
D03*
Y90800D02*
D03*
Y93900D02*
D03*
Y97100D02*
D03*
Y100200D02*
D03*
Y103400D02*
D03*
Y106500D02*
D03*
X166993D02*
D03*
Y103400D02*
D03*
Y100200D02*
D03*
Y97100D02*
D03*
Y93900D02*
D03*
Y90800D02*
D03*
Y87600D02*
D03*
Y84500D02*
D03*
D22*
X194193Y111700D02*
D03*
X191093D02*
D03*
X187893D02*
D03*
X184793D02*
D03*
X181593D02*
D03*
X178493D02*
D03*
X175293D02*
D03*
X172193D02*
D03*
Y79300D02*
D03*
X175293D02*
D03*
X178493D02*
D03*
X181593D02*
D03*
X184793D02*
D03*
X187893D02*
D03*
X191093D02*
D03*
X194193D02*
D03*
D23*
X103300Y117000D02*
D03*
Y122000D02*
D03*
Y127000D02*
D03*
Y132000D02*
D03*
Y137000D02*
D03*
Y142000D02*
D03*
Y147000D02*
D03*
Y152000D02*
D03*
X126700D02*
D03*
Y147000D02*
D03*
Y142000D02*
D03*
Y137000D02*
D03*
Y132000D02*
D03*
Y127000D02*
D03*
Y122000D02*
D03*
Y117000D02*
D03*
D24*
X94406Y59516D02*
D03*
X82595Y85500D02*
D03*
X94406D02*
D03*
X82595Y59516D02*
D03*
D25*
X75000Y137400D02*
D03*
D26*
X84100Y162600D02*
D03*
X75000D02*
D03*
X65900D02*
D03*
D27*
X220500Y161047D02*
D03*
Y166953D02*
D03*
X246500Y161047D02*
D03*
Y166953D02*
D03*
X29000Y78000D02*
D03*
Y83906D02*
D03*
X26000Y147047D02*
D03*
Y152953D02*
D03*
D28*
X61577Y187260D02*
D03*
Y191000D02*
D03*
Y194740D02*
D03*
X52276D02*
D03*
Y191000D02*
D03*
Y187260D02*
D03*
M02*
