G04*
G04 #@! TF.GenerationSoftware,Altium Limited,Altium Designer,21.6.4 (81)*
G04*
G04 Layer_Color=8388736*
%FSLAX25Y25*%
%MOIN*%
G70*
G04*
G04 #@! TF.SameCoordinates,858BF902-78F9-450F-91F8-2C9066A697E3*
G04*
G04*
G04 #@! TF.FilePolarity,Negative*
G04*
G01*
G75*
%ADD29R,0.05200X0.07900*%
%ADD30R,0.03950X0.03950*%
%ADD31R,0.07900X0.05200*%
%ADD32R,0.06311X0.05524*%
%ADD33R,0.06000X0.02200*%
%ADD34R,0.02200X0.06000*%
%ADD35O,0.09461X0.03200*%
%ADD36R,0.05524X0.06706*%
%ADD37R,0.13000X0.07100*%
%ADD38R,0.04100X0.07100*%
%ADD39R,0.03950X0.03950*%
%ADD40R,0.04137X0.02956*%
%ADD41O,0.10249X0.05524*%
%ADD42C,0.05524*%
%ADD43C,0.06800*%
%ADD44C,0.07800*%
%ADD45C,0.03300*%
D29*
X125603Y169756D02*
D03*
X137403D02*
D03*
X56600Y59500D02*
D03*
X68400D02*
D03*
X175900Y168000D02*
D03*
X164100D02*
D03*
X245900Y68500D02*
D03*
X234100D02*
D03*
X220400Y101000D02*
D03*
X208600D02*
D03*
X141100Y108000D02*
D03*
X152900D02*
D03*
X80600Y117000D02*
D03*
X92400D02*
D03*
X68900Y79000D02*
D03*
X57100D02*
D03*
D30*
X151453Y169500D02*
D03*
X145547D02*
D03*
D31*
X221500Y93400D02*
D03*
Y81600D02*
D03*
X211500Y93400D02*
D03*
Y81600D02*
D03*
X29000Y65900D02*
D03*
Y54100D02*
D03*
X26350Y134791D02*
D03*
Y122991D02*
D03*
X141000Y86900D02*
D03*
Y75100D02*
D03*
X150000Y147900D02*
D03*
Y136100D02*
D03*
X258000Y77200D02*
D03*
Y89000D02*
D03*
X187893Y147900D02*
D03*
Y136100D02*
D03*
X50000Y168900D02*
D03*
Y157100D02*
D03*
X52000Y140900D02*
D03*
Y129100D02*
D03*
X220500Y132100D02*
D03*
Y143900D02*
D03*
X246500Y132100D02*
D03*
Y143900D02*
D03*
D32*
X174662Y148693D02*
D03*
X166000D02*
D03*
X174661Y142000D02*
D03*
X166000D02*
D03*
X235670Y86457D02*
D03*
X244331D02*
D03*
X235670Y93150D02*
D03*
X244332D02*
D03*
D33*
X199393Y84500D02*
D03*
Y87600D02*
D03*
Y90800D02*
D03*
Y93900D02*
D03*
Y97100D02*
D03*
Y100200D02*
D03*
Y103400D02*
D03*
Y106500D02*
D03*
X166993D02*
D03*
Y103400D02*
D03*
Y100200D02*
D03*
Y97100D02*
D03*
Y93900D02*
D03*
Y90800D02*
D03*
Y87600D02*
D03*
Y84500D02*
D03*
D34*
X194193Y111700D02*
D03*
X191093D02*
D03*
X187893D02*
D03*
X184793D02*
D03*
X181593D02*
D03*
X178493D02*
D03*
X175293D02*
D03*
X172193D02*
D03*
Y79300D02*
D03*
X175293D02*
D03*
X178493D02*
D03*
X181593D02*
D03*
X184793D02*
D03*
X187893D02*
D03*
X191093D02*
D03*
X194193D02*
D03*
D35*
X103300Y117000D02*
D03*
Y122000D02*
D03*
Y127000D02*
D03*
Y132000D02*
D03*
Y137000D02*
D03*
Y142000D02*
D03*
Y147000D02*
D03*
Y152000D02*
D03*
X126700D02*
D03*
Y147000D02*
D03*
Y142000D02*
D03*
Y137000D02*
D03*
Y132000D02*
D03*
Y127000D02*
D03*
Y122000D02*
D03*
Y117000D02*
D03*
D36*
X94406Y59516D02*
D03*
X82595Y85500D02*
D03*
X94406D02*
D03*
X82595Y59516D02*
D03*
D37*
X75000Y137400D02*
D03*
D38*
X84100Y162600D02*
D03*
X75000D02*
D03*
X65900D02*
D03*
D39*
X220500Y161047D02*
D03*
Y166953D02*
D03*
X246500Y161047D02*
D03*
Y166953D02*
D03*
X29000Y78000D02*
D03*
Y83906D02*
D03*
X26000Y147047D02*
D03*
Y152953D02*
D03*
D40*
X61577Y187260D02*
D03*
Y191000D02*
D03*
Y194740D02*
D03*
X52276D02*
D03*
Y191000D02*
D03*
Y187260D02*
D03*
D41*
X16875Y175355D02*
D03*
X35575D02*
D03*
Y204645D02*
D03*
X16875D02*
D03*
D42*
X39125Y196221D02*
D03*
X34386Y193071D02*
D03*
Y186773D02*
D03*
X39125Y189921D02*
D03*
Y183623D02*
D03*
D43*
X256000Y201000D02*
D03*
X246000D02*
D03*
X236000D02*
D03*
X226000D02*
D03*
X216000D02*
D03*
X206000D02*
D03*
X196000D02*
D03*
X186000D02*
D03*
X80000D02*
D03*
X90000D02*
D03*
X100000D02*
D03*
X110000D02*
D03*
X120000D02*
D03*
X130000D02*
D03*
X140000D02*
D03*
X150000D02*
D03*
X160000D02*
D03*
X170000D02*
D03*
X116000Y11000D02*
D03*
X126000D02*
D03*
X136000D02*
D03*
X146000D02*
D03*
X156000D02*
D03*
X166000D02*
D03*
X176000D02*
D03*
X186000D02*
D03*
X206000D02*
D03*
X216000D02*
D03*
X226000D02*
D03*
X236000D02*
D03*
X246000D02*
D03*
X256000D02*
D03*
D44*
X14000Y64000D02*
D03*
Y54000D02*
D03*
Y84000D02*
D03*
Y74000D02*
D03*
Y133000D02*
D03*
Y123000D02*
D03*
Y153000D02*
D03*
Y143000D02*
D03*
X111000Y83000D02*
D03*
X121000D02*
D03*
X111000Y73000D02*
D03*
X121000D02*
D03*
X111000Y63000D02*
D03*
X121000D02*
D03*
D45*
X160000Y193000D02*
D03*
X150000D02*
D03*
X193000Y97500D02*
D03*
X201500Y73500D02*
D03*
X203500Y112500D02*
D03*
X44000Y179500D02*
D03*
X45500Y188000D02*
D03*
X181000Y144000D02*
D03*
X174000Y135500D02*
D03*
X138000Y138500D02*
D03*
X186000Y105000D02*
D03*
X134500Y134000D02*
D03*
X135000Y117000D02*
D03*
X37500Y54000D02*
D03*
X34500Y123500D02*
D03*
X52000D02*
D03*
X57000Y157000D02*
D03*
X256000Y71500D02*
D03*
X229000Y95000D02*
D03*
X228500Y88500D02*
D03*
X175000Y128500D02*
D03*
X135000Y96500D02*
D03*
X75500Y78500D02*
D03*
X119500Y172500D02*
D03*
X100500Y59500D02*
D03*
X203000Y80000D02*
D03*
X226500Y101000D02*
D03*
X130000Y20000D02*
D03*
X160000Y182000D02*
D03*
X150000D02*
D03*
X142000Y20000D02*
D03*
X219000Y55500D02*
D03*
X189000Y41500D02*
D03*
X155000Y57000D02*
D03*
X156150Y83500D02*
D03*
X112500Y120000D02*
D03*
X227500Y138500D02*
D03*
X192500Y120500D02*
D03*
X164000Y111500D02*
D03*
X184000Y120000D02*
D03*
X185000Y126000D02*
D03*
X156150Y100000D02*
D03*
X143000D02*
D03*
X131500Y112500D02*
D03*
X135000Y108000D02*
D03*
X136000Y152500D02*
D03*
X143000Y148000D02*
D03*
X177000Y90000D02*
D03*
X138000Y129000D02*
D03*
X116000Y138500D02*
D03*
Y159000D02*
D03*
X181500Y90000D02*
D03*
X173000Y94000D02*
D03*
X161500Y118500D02*
D03*
X111000Y138500D02*
D03*
Y159000D02*
D03*
X185000Y71500D02*
D03*
X159500Y149000D02*
D03*
X188000Y85000D02*
D03*
X192500Y87000D02*
D03*
X198000Y113000D02*
D03*
X210500Y182000D02*
D03*
X217500Y185500D02*
D03*
X227500Y132000D02*
D03*
X60000Y181000D02*
D03*
X185000Y130500D02*
D03*
X239500Y132000D02*
D03*
X84000Y157500D02*
D03*
X75000Y117000D02*
D03*
X250937Y86500D02*
D03*
X99500Y20500D02*
D03*
X84500D02*
D03*
X66500Y191000D02*
D03*
M02*
