G04*
G04 #@! TF.GenerationSoftware,Altium Limited,Altium Designer,21.6.4 (81)*
G04*
G04 Layer_Physical_Order=2*
G04 Layer_Color=16711680*
%FSLAX25Y25*%
%MOIN*%
G70*
G04*
G04 #@! TF.SameCoordinates,570BF3D3-4215-493C-AC51-86F074832852*
G04*
G04*
G04 #@! TF.FilePolarity,Positive*
G04*
G01*
G75*
%ADD10C,0.01500*%
%ADD42C,0.07000*%
%ADD43C,0.06378*%
%ADD44O,0.07874X0.14961*%
%ADD45O,0.12992X0.07087*%
%ADD46C,0.05000*%
%ADD47C,0.02500*%
G36*
X347961Y90000D02*
X2039D01*
Y197961D01*
X347961D01*
Y90000D01*
D02*
G37*
%LPC*%
G36*
X35000Y186410D02*
Y178453D01*
X39480D01*
Y181496D01*
X39310Y182785D01*
X38813Y183986D01*
X38021Y185017D01*
X36990Y185809D01*
X35789Y186306D01*
X35000Y186410D01*
D02*
G37*
G36*
X34000D02*
X33211Y186306D01*
X32010Y185809D01*
X30979Y185017D01*
X30187Y183986D01*
X29690Y182785D01*
X29520Y181496D01*
Y178453D01*
X34000D01*
Y186410D01*
D02*
G37*
G36*
X250092Y182453D02*
X250000D01*
Y178453D01*
X254000D01*
Y178545D01*
X253693Y179690D01*
X253101Y180716D01*
X252263Y181554D01*
X251237Y182146D01*
X250092Y182453D01*
D02*
G37*
G36*
X249000D02*
X248908D01*
X247763Y182146D01*
X246737Y181554D01*
X245899Y180716D01*
X245307Y179690D01*
X245000Y178545D01*
Y178453D01*
X249000D01*
Y182453D01*
D02*
G37*
G36*
X240092D02*
X240000D01*
Y178453D01*
X244000D01*
Y178545D01*
X243693Y179690D01*
X243101Y180716D01*
X242263Y181554D01*
X241237Y182146D01*
X240092Y182453D01*
D02*
G37*
G36*
X239000D02*
X238908D01*
X237763Y182146D01*
X236737Y181554D01*
X235899Y180716D01*
X235307Y179690D01*
X235000Y178545D01*
Y178453D01*
X239000D01*
Y182453D01*
D02*
G37*
G36*
X230092D02*
X230000D01*
Y178453D01*
X234000D01*
Y178545D01*
X233693Y179690D01*
X233101Y180716D01*
X232263Y181554D01*
X231237Y182146D01*
X230092Y182453D01*
D02*
G37*
G36*
X229000D02*
X228908D01*
X227763Y182146D01*
X226737Y181554D01*
X225899Y180716D01*
X225307Y179690D01*
X225000Y178545D01*
Y178453D01*
X229000D01*
Y182453D01*
D02*
G37*
G36*
X254000Y177453D02*
X250000D01*
Y173453D01*
X250092D01*
X251237Y173759D01*
X252263Y174352D01*
X253101Y175190D01*
X253693Y176216D01*
X254000Y177360D01*
Y177453D01*
D02*
G37*
G36*
X249000D02*
X245000D01*
Y177360D01*
X245307Y176216D01*
X245899Y175190D01*
X246737Y174352D01*
X247763Y173759D01*
X248908Y173453D01*
X249000D01*
Y177453D01*
D02*
G37*
G36*
X244000D02*
X240000D01*
Y173453D01*
X240092D01*
X241237Y173759D01*
X242263Y174352D01*
X243101Y175190D01*
X243693Y176216D01*
X244000Y177360D01*
Y177453D01*
D02*
G37*
G36*
X239000D02*
X235000D01*
Y177360D01*
X235307Y176216D01*
X235899Y175190D01*
X236737Y174352D01*
X237763Y173759D01*
X238908Y173453D01*
X239000D01*
Y177453D01*
D02*
G37*
G36*
X234000D02*
X230000D01*
Y173453D01*
X230092D01*
X231237Y173759D01*
X232263Y174352D01*
X233101Y175190D01*
X233693Y176216D01*
X234000Y177360D01*
Y177453D01*
D02*
G37*
G36*
X229000D02*
X225000D01*
Y177360D01*
X225307Y176216D01*
X225899Y175190D01*
X226737Y174352D01*
X227763Y173759D01*
X228908Y173453D01*
X229000D01*
Y177453D01*
D02*
G37*
G36*
X220092Y182453D02*
X218908D01*
X217763Y182146D01*
X216737Y181554D01*
X215899Y180716D01*
X215307Y179690D01*
X215000Y178545D01*
Y177360D01*
X215307Y176216D01*
X215899Y175190D01*
X216737Y174352D01*
X217763Y173759D01*
X218908Y173453D01*
X220092D01*
X221237Y173759D01*
X222263Y174352D01*
X223101Y175190D01*
X223693Y176216D01*
X224000Y177360D01*
Y178545D01*
X223693Y179690D01*
X223101Y180716D01*
X222263Y181554D01*
X221237Y182146D01*
X220092Y182453D01*
D02*
G37*
G36*
X180092D02*
X178908D01*
X177763Y182146D01*
X176737Y181554D01*
X175899Y180716D01*
X175307Y179690D01*
X175000Y178545D01*
Y177360D01*
X175307Y176216D01*
X175899Y175190D01*
X176737Y174352D01*
X177763Y173759D01*
X178908Y173453D01*
X180092D01*
X181237Y173759D01*
X182263Y174352D01*
X183101Y175190D01*
X183693Y176216D01*
X184000Y177360D01*
Y178545D01*
X183693Y179690D01*
X183101Y180716D01*
X182263Y181554D01*
X181237Y182146D01*
X180092Y182453D01*
D02*
G37*
G36*
X34000Y177453D02*
X29520D01*
Y174409D01*
X29690Y173121D01*
X30187Y171920D01*
X30979Y170888D01*
X32010Y170097D01*
X33211Y169599D01*
X34000Y169496D01*
Y177453D01*
D02*
G37*
G36*
X39480D02*
X35000D01*
Y169496D01*
X35789Y169599D01*
X36990Y170097D01*
X38021Y170888D01*
X38813Y171920D01*
X39310Y173121D01*
X39480Y174409D01*
Y177453D01*
D02*
G37*
G36*
X58122Y186476D02*
X56833Y186306D01*
X55632Y185809D01*
X54601Y185017D01*
X53810Y183986D01*
X53312Y182785D01*
X53142Y181496D01*
Y174409D01*
X53312Y173121D01*
X53810Y171920D01*
X54601Y170888D01*
X55632Y170097D01*
X56833Y169599D01*
X58122Y169430D01*
X59411Y169599D01*
X60612Y170097D01*
X61643Y170888D01*
X62435Y171920D01*
X62932Y173121D01*
X63102Y174409D01*
Y181496D01*
X62932Y182785D01*
X62435Y183986D01*
X61643Y185017D01*
X60612Y185809D01*
X59411Y186306D01*
X58122Y186476D01*
D02*
G37*
G36*
X180092Y172453D02*
X180000D01*
Y168453D01*
X184000D01*
Y168545D01*
X183693Y169690D01*
X183101Y170716D01*
X182263Y171554D01*
X181237Y172146D01*
X180092Y172453D01*
D02*
G37*
G36*
X179000D02*
X178908D01*
X177763Y172146D01*
X176737Y171554D01*
X175899Y170716D01*
X175307Y169690D01*
X175000Y168545D01*
Y168453D01*
X179000D01*
Y172453D01*
D02*
G37*
G36*
X184000Y167453D02*
X180000D01*
Y163453D01*
X180092D01*
X181237Y163759D01*
X182263Y164352D01*
X183101Y165190D01*
X183693Y166216D01*
X184000Y167360D01*
Y167453D01*
D02*
G37*
G36*
X179000D02*
X175000D01*
Y167360D01*
X175307Y166216D01*
X175899Y165190D01*
X176737Y164352D01*
X177763Y163759D01*
X178908Y163453D01*
X179000D01*
Y167453D01*
D02*
G37*
G36*
X51232Y164228D02*
X48779D01*
Y160146D01*
X55749D01*
X55659Y160832D01*
X55201Y161937D01*
X54473Y162886D01*
X53523Y163614D01*
X52418Y164072D01*
X51232Y164228D01*
D02*
G37*
G36*
X47780D02*
X45327D01*
X44141Y164072D01*
X43036Y163614D01*
X42086Y162886D01*
X41358Y161937D01*
X40900Y160832D01*
X40810Y160146D01*
X47780D01*
Y164228D01*
D02*
G37*
G36*
X180092Y162453D02*
X180000D01*
Y158453D01*
X184000D01*
Y158545D01*
X183693Y159690D01*
X183101Y160716D01*
X182263Y161554D01*
X181237Y162146D01*
X180092Y162453D01*
D02*
G37*
G36*
X179000D02*
X178908D01*
X177763Y162146D01*
X176737Y161554D01*
X175899Y160716D01*
X175307Y159690D01*
X175000Y158545D01*
Y158453D01*
X179000D01*
Y162453D01*
D02*
G37*
G36*
X55749Y159146D02*
X48779D01*
Y155063D01*
X51232D01*
X52418Y155219D01*
X53523Y155677D01*
X54473Y156405D01*
X55201Y157354D01*
X55659Y158460D01*
X55749Y159146D01*
D02*
G37*
G36*
X47780D02*
X40810D01*
X40900Y158460D01*
X41358Y157354D01*
X42086Y156405D01*
X43036Y155677D01*
X44141Y155219D01*
X45327Y155063D01*
X47780D01*
Y159146D01*
D02*
G37*
G36*
X184000Y157453D02*
X180000D01*
Y153453D01*
X180092D01*
X181237Y153759D01*
X182263Y154352D01*
X183101Y155190D01*
X183693Y156216D01*
X184000Y157360D01*
Y157453D01*
D02*
G37*
G36*
X179000D02*
X175000D01*
Y157360D01*
X175307Y156216D01*
X175899Y155190D01*
X176737Y154352D01*
X177763Y153759D01*
X178908Y153453D01*
X179000D01*
Y157453D01*
D02*
G37*
G36*
X180092Y152453D02*
X180000D01*
Y148453D01*
X184000D01*
Y148545D01*
X183693Y149690D01*
X183101Y150716D01*
X182263Y151554D01*
X181237Y152146D01*
X180092Y152453D01*
D02*
G37*
G36*
X179000D02*
X178908D01*
X177763Y152146D01*
X176737Y151554D01*
X175899Y150716D01*
X175307Y149690D01*
X175000Y148545D01*
Y148453D01*
X179000D01*
Y152453D01*
D02*
G37*
G36*
X250092D02*
X250000D01*
Y148453D01*
X254000D01*
Y148545D01*
X253693Y149690D01*
X253101Y150716D01*
X252263Y151554D01*
X251237Y152146D01*
X250092Y152453D01*
D02*
G37*
G36*
X249000D02*
X248908D01*
X247763Y152146D01*
X246737Y151554D01*
X245899Y150716D01*
X245307Y149690D01*
X245000Y148545D01*
Y148453D01*
X249000D01*
Y152453D01*
D02*
G37*
G36*
X240092D02*
X240000D01*
Y148453D01*
X244000D01*
Y148545D01*
X243693Y149690D01*
X243101Y150716D01*
X242263Y151554D01*
X241237Y152146D01*
X240092Y152453D01*
D02*
G37*
G36*
X239000D02*
X238908D01*
X237763Y152146D01*
X236737Y151554D01*
X235899Y150716D01*
X235307Y149690D01*
X235000Y148545D01*
Y148453D01*
X239000D01*
Y152453D01*
D02*
G37*
G36*
X230092D02*
X230000D01*
Y148453D01*
X234000D01*
Y148545D01*
X233693Y149690D01*
X233101Y150716D01*
X232263Y151554D01*
X231237Y152146D01*
X230092Y152453D01*
D02*
G37*
G36*
X229000D02*
X228908D01*
X227763Y152146D01*
X226737Y151554D01*
X225899Y150716D01*
X225307Y149690D01*
X225000Y148545D01*
Y148453D01*
X229000D01*
Y152453D01*
D02*
G37*
G36*
X254000Y147453D02*
X250000D01*
Y143453D01*
X250092D01*
X251237Y143759D01*
X252263Y144352D01*
X253101Y145190D01*
X253693Y146216D01*
X254000Y147360D01*
Y147453D01*
D02*
G37*
G36*
X249000D02*
X245000D01*
Y147360D01*
X245307Y146216D01*
X245899Y145190D01*
X246737Y144352D01*
X247763Y143759D01*
X248908Y143453D01*
X249000D01*
Y147453D01*
D02*
G37*
G36*
X244000D02*
X240000D01*
Y143453D01*
X240092D01*
X241237Y143759D01*
X242263Y144352D01*
X243101Y145190D01*
X243693Y146216D01*
X244000Y147360D01*
Y147453D01*
D02*
G37*
G36*
X239000D02*
X235000D01*
Y147360D01*
X235307Y146216D01*
X235899Y145190D01*
X236737Y144352D01*
X237763Y143759D01*
X238908Y143453D01*
X239000D01*
Y147453D01*
D02*
G37*
G36*
X234000D02*
X230000D01*
Y143453D01*
X230092D01*
X231237Y143759D01*
X232263Y144352D01*
X233101Y145190D01*
X233693Y146216D01*
X234000Y147360D01*
Y147453D01*
D02*
G37*
G36*
X229000D02*
X225000D01*
Y147360D01*
X225307Y146216D01*
X225899Y145190D01*
X226737Y144352D01*
X227763Y143759D01*
X228908Y143453D01*
X229000D01*
Y147453D01*
D02*
G37*
G36*
X220092Y152453D02*
X218908D01*
X217763Y152146D01*
X216737Y151554D01*
X215899Y150716D01*
X215307Y149690D01*
X215000Y148545D01*
Y147360D01*
X215307Y146216D01*
X215899Y145190D01*
X216737Y144352D01*
X217763Y143759D01*
X218908Y143453D01*
X220092D01*
X221237Y143759D01*
X222263Y144352D01*
X223101Y145190D01*
X223693Y146216D01*
X224000Y147360D01*
Y148545D01*
X223693Y149690D01*
X223101Y150716D01*
X222263Y151554D01*
X221237Y152146D01*
X220092Y152453D01*
D02*
G37*
G36*
X184000Y147453D02*
X180000D01*
Y143453D01*
X180092D01*
X181237Y143759D01*
X182263Y144352D01*
X183101Y145190D01*
X183693Y146216D01*
X184000Y147360D01*
Y147453D01*
D02*
G37*
G36*
X179000D02*
X175000D01*
Y147360D01*
X175307Y146216D01*
X175899Y145190D01*
X176737Y144352D01*
X177763Y143759D01*
X178908Y143453D01*
X179000D01*
Y147453D01*
D02*
G37*
G36*
X125551Y139189D02*
X124449D01*
X123383Y138903D01*
X122428Y138352D01*
X121648Y137572D01*
X121097Y136617D01*
X120811Y135552D01*
Y134449D01*
X121097Y133383D01*
X121648Y132428D01*
X122428Y131648D01*
X123383Y131096D01*
X124449Y130811D01*
X125551D01*
X126617Y131096D01*
X127572Y131648D01*
X128352Y132428D01*
X128903Y133383D01*
X129189Y134449D01*
Y135552D01*
X128903Y136617D01*
X128352Y137572D01*
X127572Y138352D01*
X126617Y138903D01*
X125551Y139189D01*
D02*
G37*
G36*
X115551D02*
X114448D01*
X113383Y138903D01*
X112428Y138352D01*
X111648Y137572D01*
X111097Y136617D01*
X110811Y135552D01*
Y134449D01*
X111097Y133383D01*
X111648Y132428D01*
X112428Y131648D01*
X113383Y131096D01*
X114448Y130811D01*
X115551D01*
X116617Y131096D01*
X117572Y131648D01*
X118352Y132428D01*
X118904Y133383D01*
X119189Y134449D01*
Y135552D01*
X118904Y136617D01*
X118352Y137572D01*
X117572Y138352D01*
X116617Y138903D01*
X115551Y139189D01*
D02*
G37*
G36*
X200051Y132142D02*
X198949D01*
X197883Y131856D01*
X196928Y131305D01*
X196148Y130525D01*
X195597Y129570D01*
X195311Y128504D01*
Y127401D01*
X195597Y126336D01*
X196148Y125381D01*
X196928Y124601D01*
X197883Y124049D01*
X198949Y123764D01*
X200051D01*
X201117Y124049D01*
X202072Y124601D01*
X202852Y125381D01*
X203403Y126336D01*
X203689Y127401D01*
Y128504D01*
X203403Y129570D01*
X202852Y130525D01*
X202072Y131305D01*
X201117Y131856D01*
X200051Y132142D01*
D02*
G37*
G36*
X40092Y132453D02*
X38908D01*
X37763Y132146D01*
X36737Y131554D01*
X35899Y130716D01*
X35307Y129690D01*
X35000Y128545D01*
Y127360D01*
X35307Y126216D01*
X35899Y125190D01*
X36737Y124352D01*
X37763Y123759D01*
X38908Y123453D01*
X40092D01*
X41237Y123759D01*
X42263Y124352D01*
X43101Y125190D01*
X43693Y126216D01*
X44000Y127360D01*
Y128545D01*
X43693Y129690D01*
X43101Y130716D01*
X42263Y131554D01*
X41237Y132146D01*
X40092Y132453D01*
D02*
G37*
G36*
X15092D02*
X13908D01*
X12763Y132146D01*
X11737Y131554D01*
X10899Y130716D01*
X10307Y129690D01*
X10000Y128545D01*
Y127360D01*
X10307Y126216D01*
X10899Y125190D01*
X11737Y124352D01*
X12763Y123759D01*
X13908Y123453D01*
X15092D01*
X16237Y123759D01*
X17263Y124352D01*
X18101Y125190D01*
X18693Y126216D01*
X19000Y127360D01*
Y128545D01*
X18693Y129690D01*
X18101Y130716D01*
X17263Y131554D01*
X16237Y132146D01*
X15092Y132453D01*
D02*
G37*
G36*
Y122453D02*
X15000D01*
Y118453D01*
X19000D01*
Y118545D01*
X18693Y119690D01*
X18101Y120716D01*
X17263Y121554D01*
X16237Y122146D01*
X15092Y122453D01*
D02*
G37*
G36*
X40092D02*
X40000D01*
Y118453D01*
X44000D01*
Y118545D01*
X43693Y119690D01*
X43101Y120716D01*
X42263Y121554D01*
X41237Y122146D01*
X40092Y122453D01*
D02*
G37*
G36*
X14000D02*
X13908D01*
X12763Y122146D01*
X11737Y121554D01*
X10899Y120716D01*
X10307Y119690D01*
X10000Y118545D01*
Y118453D01*
X14000D01*
Y122453D01*
D02*
G37*
G36*
X39000D02*
X38908D01*
X37763Y122146D01*
X36737Y121554D01*
X35899Y120716D01*
X35307Y119690D01*
X35000Y118545D01*
Y118453D01*
X39000D01*
Y122453D01*
D02*
G37*
G36*
X295092D02*
X295000D01*
Y118453D01*
X299000D01*
Y118545D01*
X298693Y119690D01*
X298101Y120716D01*
X297263Y121554D01*
X296237Y122146D01*
X295092Y122453D01*
D02*
G37*
G36*
X294000D02*
X293908D01*
X292763Y122146D01*
X291737Y121554D01*
X290899Y120716D01*
X290307Y119690D01*
X290000Y118545D01*
Y118453D01*
X294000D01*
Y122453D01*
D02*
G37*
G36*
X285092D02*
X285000D01*
Y118453D01*
X289000D01*
Y118545D01*
X288693Y119690D01*
X288101Y120716D01*
X287263Y121554D01*
X286237Y122146D01*
X285092Y122453D01*
D02*
G37*
G36*
X284000D02*
X283908D01*
X282763Y122146D01*
X281737Y121554D01*
X280899Y120716D01*
X280307Y119690D01*
X280000Y118545D01*
Y118453D01*
X284000D01*
Y122453D01*
D02*
G37*
G36*
X275092D02*
X275000D01*
Y118453D01*
X279000D01*
Y118545D01*
X278693Y119690D01*
X278101Y120716D01*
X277263Y121554D01*
X276237Y122146D01*
X275092Y122453D01*
D02*
G37*
G36*
X274000D02*
X273908D01*
X272763Y122146D01*
X271737Y121554D01*
X270899Y120716D01*
X270307Y119690D01*
X270000Y118545D01*
Y118453D01*
X274000D01*
Y122453D01*
D02*
G37*
G36*
X200051Y122142D02*
X198949D01*
X197883Y121856D01*
X196928Y121305D01*
X196148Y120525D01*
X195597Y119570D01*
X195311Y118504D01*
Y117401D01*
X195597Y116336D01*
X196148Y115381D01*
X196928Y114601D01*
X197883Y114049D01*
X198949Y113764D01*
X200051D01*
X201117Y114049D01*
X202072Y114601D01*
X202852Y115381D01*
X203403Y116336D01*
X203689Y117401D01*
Y118504D01*
X203403Y119570D01*
X202852Y120525D01*
X202072Y121305D01*
X201117Y121856D01*
X200051Y122142D01*
D02*
G37*
G36*
X299000Y117453D02*
X295000D01*
Y113453D01*
X295092D01*
X296237Y113759D01*
X297263Y114352D01*
X298101Y115190D01*
X298693Y116216D01*
X299000Y117360D01*
Y117453D01*
D02*
G37*
G36*
X294000D02*
X290000D01*
Y117360D01*
X290307Y116216D01*
X290899Y115190D01*
X291737Y114352D01*
X292763Y113759D01*
X293908Y113453D01*
X294000D01*
Y117453D01*
D02*
G37*
G36*
X289000D02*
X285000D01*
Y113453D01*
X285092D01*
X286237Y113759D01*
X287263Y114352D01*
X288101Y115190D01*
X288693Y116216D01*
X289000Y117360D01*
Y117453D01*
D02*
G37*
G36*
X284000D02*
X280000D01*
Y117360D01*
X280307Y116216D01*
X280899Y115190D01*
X281737Y114352D01*
X282763Y113759D01*
X283908Y113453D01*
X284000D01*
Y117453D01*
D02*
G37*
G36*
X279000D02*
X275000D01*
Y113453D01*
X275092D01*
X276237Y113759D01*
X277263Y114352D01*
X278101Y115190D01*
X278693Y116216D01*
X279000Y117360D01*
Y117453D01*
D02*
G37*
G36*
X274000D02*
X270000D01*
Y117360D01*
X270307Y116216D01*
X270899Y115190D01*
X271737Y114352D01*
X272763Y113759D01*
X273908Y113453D01*
X274000D01*
Y117453D01*
D02*
G37*
G36*
X265092Y122453D02*
X263908D01*
X262763Y122146D01*
X261737Y121554D01*
X260899Y120716D01*
X260307Y119690D01*
X260000Y118545D01*
Y117360D01*
X260307Y116216D01*
X260899Y115190D01*
X261737Y114352D01*
X262763Y113759D01*
X263908Y113453D01*
X265092D01*
X266237Y113759D01*
X267263Y114352D01*
X268101Y115190D01*
X268693Y116216D01*
X269000Y117360D01*
Y118545D01*
X268693Y119690D01*
X268101Y120716D01*
X267263Y121554D01*
X266237Y122146D01*
X265092Y122453D01*
D02*
G37*
G36*
X44000Y117453D02*
X40000D01*
Y113453D01*
X40092D01*
X41237Y113759D01*
X42263Y114352D01*
X43101Y115190D01*
X43693Y116216D01*
X44000Y117360D01*
Y117453D01*
D02*
G37*
G36*
X39000D02*
X35000D01*
Y117360D01*
X35307Y116216D01*
X35899Y115190D01*
X36737Y114352D01*
X37763Y113759D01*
X38908Y113453D01*
X39000D01*
Y117453D01*
D02*
G37*
G36*
X19000D02*
X15000D01*
Y113453D01*
X15092D01*
X16237Y113759D01*
X17263Y114352D01*
X18101Y115190D01*
X18693Y116216D01*
X19000Y117360D01*
Y117453D01*
D02*
G37*
G36*
X14000D02*
X10000D01*
Y117360D01*
X10307Y116216D01*
X10899Y115190D01*
X11737Y114352D01*
X12763Y113759D01*
X13908Y113453D01*
X14000D01*
Y117453D01*
D02*
G37*
G36*
X40092Y112453D02*
X40000D01*
Y108453D01*
X44000D01*
Y108545D01*
X43693Y109690D01*
X43101Y110716D01*
X42263Y111554D01*
X41237Y112146D01*
X40092Y112453D01*
D02*
G37*
G36*
X15092D02*
X15000D01*
Y108453D01*
X19000D01*
Y108545D01*
X18693Y109690D01*
X18101Y110716D01*
X17263Y111554D01*
X16237Y112146D01*
X15092Y112453D01*
D02*
G37*
G36*
X39000D02*
X38908D01*
X37763Y112146D01*
X36737Y111554D01*
X35899Y110716D01*
X35307Y109690D01*
X35000Y108545D01*
Y108453D01*
X39000D01*
Y112453D01*
D02*
G37*
G36*
X14000D02*
X13908D01*
X12763Y112146D01*
X11737Y111554D01*
X10899Y110716D01*
X10307Y109690D01*
X10000Y108545D01*
Y108453D01*
X14000D01*
Y112453D01*
D02*
G37*
G36*
X44000Y107453D02*
X40000D01*
Y103453D01*
X40092D01*
X41237Y103759D01*
X42263Y104352D01*
X43101Y105190D01*
X43693Y106216D01*
X44000Y107360D01*
Y107453D01*
D02*
G37*
G36*
X39000D02*
X35000D01*
Y107360D01*
X35307Y106216D01*
X35899Y105190D01*
X36737Y104352D01*
X37763Y103759D01*
X38908Y103453D01*
X39000D01*
Y107453D01*
D02*
G37*
G36*
X19000D02*
X15000D01*
Y103453D01*
X15092D01*
X16237Y103759D01*
X17263Y104352D01*
X18101Y105190D01*
X18693Y106216D01*
X19000Y107360D01*
Y107453D01*
D02*
G37*
G36*
X14000D02*
X10000D01*
Y107360D01*
X10307Y106216D01*
X10899Y105190D01*
X11737Y104352D01*
X12763Y103759D01*
X13908Y103453D01*
X14000D01*
Y107453D01*
D02*
G37*
G36*
X40092Y102453D02*
X40000D01*
Y98453D01*
X44000D01*
Y98545D01*
X43693Y99690D01*
X43101Y100716D01*
X42263Y101554D01*
X41237Y102146D01*
X40092Y102453D01*
D02*
G37*
G36*
X15092D02*
X15000D01*
Y98453D01*
X19000D01*
Y98545D01*
X18693Y99690D01*
X18101Y100716D01*
X17263Y101554D01*
X16237Y102146D01*
X15092Y102453D01*
D02*
G37*
G36*
X39000D02*
X38908D01*
X37763Y102146D01*
X36737Y101554D01*
X35899Y100716D01*
X35307Y99690D01*
X35000Y98545D01*
Y98453D01*
X39000D01*
Y102453D01*
D02*
G37*
G36*
X14000D02*
X13908D01*
X12763Y102146D01*
X11737Y101554D01*
X10899Y100716D01*
X10307Y99690D01*
X10000Y98545D01*
Y98453D01*
X14000D01*
Y102453D01*
D02*
G37*
G36*
X44000Y97453D02*
X40000D01*
Y93453D01*
X40092D01*
X41237Y93759D01*
X42263Y94352D01*
X43101Y95190D01*
X43693Y96216D01*
X44000Y97360D01*
Y97453D01*
D02*
G37*
G36*
X39000D02*
X35000D01*
Y97360D01*
X35307Y96216D01*
X35899Y95190D01*
X36737Y94352D01*
X37763Y93759D01*
X38908Y93453D01*
X39000D01*
Y97453D01*
D02*
G37*
G36*
X19000D02*
X15000D01*
Y93453D01*
X15092D01*
X16237Y93759D01*
X17263Y94352D01*
X18101Y95190D01*
X18693Y96216D01*
X19000Y97360D01*
Y97453D01*
D02*
G37*
G36*
X14000D02*
X10000D01*
Y97360D01*
X10307Y96216D01*
X10899Y95190D01*
X11737Y94352D01*
X12763Y93759D01*
X13908Y93453D01*
X14000D01*
Y97453D01*
D02*
G37*
%LPD*%
D10*
X261500Y55500D02*
Y71000D01*
D42*
X274500Y17953D02*
D03*
X264500D02*
D03*
X294500D02*
D03*
X284500D02*
D03*
X229500Y37953D02*
D03*
X219500D02*
D03*
X249500D02*
D03*
X239500D02*
D03*
X229500Y72953D02*
D03*
X219500D02*
D03*
X249500D02*
D03*
X239500D02*
D03*
X274500Y117953D02*
D03*
X264500D02*
D03*
X294500D02*
D03*
X284500D02*
D03*
X229500Y147953D02*
D03*
X219500D02*
D03*
X249500D02*
D03*
X239500D02*
D03*
X229500Y177953D02*
D03*
X219500D02*
D03*
X249500D02*
D03*
X239500D02*
D03*
X39500Y117953D02*
D03*
Y127953D02*
D03*
Y97953D02*
D03*
Y107953D02*
D03*
X179500Y167953D02*
D03*
Y177953D02*
D03*
Y147953D02*
D03*
Y157953D02*
D03*
X14500Y117953D02*
D03*
Y127953D02*
D03*
Y97953D02*
D03*
Y107953D02*
D03*
D43*
X199500Y32953D02*
D03*
Y22953D02*
D03*
Y127953D02*
D03*
Y117953D02*
D03*
X115000Y135000D02*
D03*
X125000D02*
D03*
D44*
X58122Y177953D02*
D03*
X34500D02*
D03*
D45*
X48280Y159646D02*
D03*
D46*
X343000Y94000D02*
D03*
X336500Y180000D02*
D03*
X270000Y94000D02*
D03*
X284000Y130000D02*
D03*
X292000Y190000D02*
D03*
X53500Y103000D02*
D03*
X68500Y118000D02*
D03*
X79500Y148000D02*
D03*
X159500Y151500D02*
D03*
X125000Y145500D02*
D03*
X140000Y108000D02*
D03*
D47*
X261500Y71000D02*
D03*
Y55500D02*
D03*
M02*
