G04*
G04 #@! TF.GenerationSoftware,Altium Limited,Altium Designer,21.6.4 (81)*
G04*
G04 Layer_Color=8421504*
%FSLAX25Y25*%
%MOIN*%
G70*
G04*
G04 #@! TF.SameCoordinates,570BF3D3-4215-493C-AC51-86F074832852*
G04*
G04*
G04 #@! TF.FilePolarity,Positive*
G04*
G01*
G75*
%ADD19R,0.03150X0.03150*%
%ADD20R,0.10433X0.02362*%
%ADD21R,0.13386X0.02362*%
%ADD22R,0.02756X0.02362*%
%ADD23R,0.02362X0.02756*%
%ADD24R,0.03300X0.06300*%
%ADD25R,0.12200X0.06300*%
%ADD26R,0.03150X0.03150*%
%ADD27R,0.05709X0.03937*%
%ADD28R,0.03937X0.05709*%
D19*
X306547Y119953D02*
D03*
X312453D02*
D03*
X306547Y137953D02*
D03*
X312453D02*
D03*
X306547Y157953D02*
D03*
X312453D02*
D03*
X306547Y35000D02*
D03*
X312453D02*
D03*
X306547Y55000D02*
D03*
X312453D02*
D03*
X306547Y75000D02*
D03*
X312453D02*
D03*
D20*
X273835D02*
D03*
Y70000D02*
D03*
Y65000D02*
D03*
Y60000D02*
D03*
Y55000D02*
D03*
Y50000D02*
D03*
Y45000D02*
D03*
X296165D02*
D03*
Y50000D02*
D03*
Y55000D02*
D03*
Y60000D02*
D03*
Y65000D02*
D03*
Y70000D02*
D03*
X296000Y75000D02*
D03*
X273335Y167953D02*
D03*
Y162953D02*
D03*
Y157953D02*
D03*
Y152953D02*
D03*
Y147953D02*
D03*
Y142953D02*
D03*
Y137953D02*
D03*
X295665D02*
D03*
Y142953D02*
D03*
Y147953D02*
D03*
Y152953D02*
D03*
Y157953D02*
D03*
Y162953D02*
D03*
X295500Y167953D02*
D03*
D21*
X100760Y117953D02*
D03*
Y112953D02*
D03*
Y107953D02*
D03*
Y102953D02*
D03*
X79500D02*
D03*
Y107953D02*
D03*
Y112953D02*
D03*
Y117953D02*
D03*
D22*
X310000Y95000D02*
D03*
Y98937D02*
D03*
X309500Y174016D02*
D03*
Y177953D02*
D03*
X59500Y112953D02*
D03*
Y116890D02*
D03*
Y134016D02*
D03*
Y137953D02*
D03*
X94500Y147953D02*
D03*
Y151890D02*
D03*
X59500Y94016D02*
D03*
Y97953D02*
D03*
D23*
X332531Y119953D02*
D03*
X336469D02*
D03*
X332531Y137953D02*
D03*
X336469D02*
D03*
X332531Y157953D02*
D03*
X336469D02*
D03*
X332531Y35000D02*
D03*
X336469D02*
D03*
X332531Y55000D02*
D03*
X336469D02*
D03*
X332531Y75000D02*
D03*
X336469D02*
D03*
D24*
X143600Y155353D02*
D03*
X134500D02*
D03*
X125400D02*
D03*
D25*
X134500Y180553D02*
D03*
D26*
X94500Y170000D02*
D03*
Y175906D02*
D03*
D27*
X26000Y75740D02*
D03*
Y68260D02*
D03*
X274000Y184740D02*
D03*
Y177260D02*
D03*
X159500Y166693D02*
D03*
Y159213D02*
D03*
X79500Y169213D02*
D03*
Y176693D02*
D03*
D28*
X120760Y107953D02*
D03*
X128240D02*
D03*
M02*
