M48
;Layer_Color=9474304
;FILE_FORMAT=2:5
INCH,LZ
;TYPE=PLATED
T1F00S00C0.01300
T2F00S00C0.02800
T4F00S00C0.04000
T5F00S00C0.04016
%
T01
X02615Y00555
Y0071
T02
X027Y0094
X0284Y013
X0292Y019
X03365Y018
X0343Y0094
X014Y0108
X0125Y01455
X01595Y01515
X00795Y0148
X00685Y0118
X00535Y0103
T04
X02195Y0037953
X02295
X02395
X02495
X02645Y0017953
X02745
X02845
X02945
X02495Y0072953
X02395
X02295
X02195
Y0147953
X02295
X02395
X02495
Y0177953
X02395
X02295
X02195
X02645Y0117953
X02745
X02845
X02945
X01795Y0147953
Y0157953
Y0167953
Y0177953
X00395Y0127953
Y0117953
Y0107953
Y0097953
X00145
Y0107953
Y0117953
Y0127953
T05
X01995Y0022953
Y0032953
Y0117953
Y0127953
X0125Y0135
X0115
M30
