G04*
G04 #@! TF.GenerationSoftware,Altium Limited,Altium Designer,21.6.4 (81)*
G04*
G04 Layer_Color=8388736*
%FSLAX25Y25*%
%MOIN*%
G70*
G04*
G04 #@! TF.SameCoordinates,570BF3D3-4215-493C-AC51-86F074832852*
G04*
G04*
G04 #@! TF.FilePolarity,Negative*
G04*
G01*
G75*
%ADD22R,0.02756X0.02362*%
%ADD23R,0.02362X0.02756*%
%ADD27R,0.05709X0.03937*%
%ADD28R,0.03937X0.05709*%
%ADD29C,0.00000*%
%ADD30R,0.03950X0.03950*%
%ADD31R,0.11233X0.03162*%
%ADD32R,0.14186X0.03162*%
%ADD33R,0.04100X0.07100*%
%ADD34R,0.13000X0.07100*%
%ADD35R,0.03950X0.03950*%
%ADD36C,0.07800*%
%ADD37C,0.07178*%
%ADD38O,0.08674X0.15761*%
%ADD39O,0.13792X0.07887*%
%ADD40C,0.05800*%
%ADD41C,0.03300*%
D22*
X310000Y95000D02*
D03*
Y98937D02*
D03*
X309500Y174016D02*
D03*
Y177953D02*
D03*
X59500Y112953D02*
D03*
Y116890D02*
D03*
Y134016D02*
D03*
Y137953D02*
D03*
X94500Y147953D02*
D03*
Y151890D02*
D03*
X59500Y94016D02*
D03*
Y97953D02*
D03*
D23*
X332531Y119953D02*
D03*
X336469D02*
D03*
X332531Y137953D02*
D03*
X336469D02*
D03*
X332531Y157953D02*
D03*
X336469D02*
D03*
X332531Y35000D02*
D03*
X336469D02*
D03*
X332531Y55000D02*
D03*
X336469D02*
D03*
X332531Y75000D02*
D03*
X336469D02*
D03*
D27*
X26000Y75740D02*
D03*
Y68260D02*
D03*
X274000Y184740D02*
D03*
Y177260D02*
D03*
X159500Y166693D02*
D03*
Y159213D02*
D03*
X79500Y169213D02*
D03*
Y176693D02*
D03*
D28*
X120760Y107953D02*
D03*
X128240D02*
D03*
D29*
X202890Y32953D02*
G03*
X202890Y32953I-3390J0D01*
G01*
Y22953D02*
G03*
X202890Y22953I-3390J0D01*
G01*
Y127953D02*
G03*
X202890Y127953I-3390J0D01*
G01*
Y117953D02*
G03*
X202890Y117953I-3390J0D01*
G01*
X118390Y135000D02*
G03*
X118390Y135000I-3390J0D01*
G01*
X128390D02*
G03*
X128390Y135000I-3390J0D01*
G01*
D30*
X306547Y119953D02*
D03*
X312453D02*
D03*
X306547Y137953D02*
D03*
X312453D02*
D03*
X306547Y157953D02*
D03*
X312453D02*
D03*
X306547Y35000D02*
D03*
X312453D02*
D03*
X306547Y55000D02*
D03*
X312453D02*
D03*
X306547Y75000D02*
D03*
X312453D02*
D03*
D31*
X273835D02*
D03*
Y70000D02*
D03*
Y65000D02*
D03*
Y60000D02*
D03*
Y55000D02*
D03*
Y50000D02*
D03*
Y45000D02*
D03*
X296165D02*
D03*
Y50000D02*
D03*
Y55000D02*
D03*
Y60000D02*
D03*
Y65000D02*
D03*
Y70000D02*
D03*
X296000Y75000D02*
D03*
X273335Y167953D02*
D03*
Y162953D02*
D03*
Y157953D02*
D03*
Y152953D02*
D03*
Y147953D02*
D03*
Y142953D02*
D03*
Y137953D02*
D03*
X295665D02*
D03*
Y142953D02*
D03*
Y147953D02*
D03*
Y152953D02*
D03*
Y157953D02*
D03*
Y162953D02*
D03*
X295500Y167953D02*
D03*
D32*
X100760Y117953D02*
D03*
Y112953D02*
D03*
Y107953D02*
D03*
Y102953D02*
D03*
X79500D02*
D03*
Y107953D02*
D03*
Y112953D02*
D03*
Y117953D02*
D03*
D33*
X143600Y155353D02*
D03*
X134500D02*
D03*
X125400D02*
D03*
D34*
X134500Y180553D02*
D03*
D35*
X94500Y170000D02*
D03*
Y175906D02*
D03*
D36*
X274500Y17953D02*
D03*
X264500D02*
D03*
X294500D02*
D03*
X284500D02*
D03*
X229500Y37953D02*
D03*
X219500D02*
D03*
X249500D02*
D03*
X239500D02*
D03*
X229500Y72953D02*
D03*
X219500D02*
D03*
X249500D02*
D03*
X239500D02*
D03*
X274500Y117953D02*
D03*
X264500D02*
D03*
X294500D02*
D03*
X284500D02*
D03*
X229500Y147953D02*
D03*
X219500D02*
D03*
X249500D02*
D03*
X239500D02*
D03*
X229500Y177953D02*
D03*
X219500D02*
D03*
X249500D02*
D03*
X239500D02*
D03*
X39500Y117953D02*
D03*
Y127953D02*
D03*
Y97953D02*
D03*
Y107953D02*
D03*
X179500Y167953D02*
D03*
Y177953D02*
D03*
Y147953D02*
D03*
Y157953D02*
D03*
X14500Y117953D02*
D03*
Y127953D02*
D03*
Y97953D02*
D03*
Y107953D02*
D03*
D37*
X199500Y32953D02*
D03*
Y22953D02*
D03*
Y127953D02*
D03*
Y117953D02*
D03*
X115000Y135000D02*
D03*
X125000D02*
D03*
D38*
X58122Y177953D02*
D03*
X34500D02*
D03*
D39*
X48280Y159646D02*
D03*
D40*
X343000Y94000D02*
D03*
X336500Y180000D02*
D03*
X270000Y94000D02*
D03*
X284000Y130000D02*
D03*
X292000Y190000D02*
D03*
X53500Y103000D02*
D03*
X68500Y118000D02*
D03*
X79500Y148000D02*
D03*
X159500Y151500D02*
D03*
X125000Y145500D02*
D03*
X140000Y108000D02*
D03*
D41*
X261500Y71000D02*
D03*
Y55500D02*
D03*
M02*
