G04*
G04 #@! TF.GenerationSoftware,Altium Limited,Altium Designer,21.6.4 (81)*
G04*
G04 Layer_Physical_Order=1*
G04 Layer_Color=255*
%FSLAX25Y25*%
%MOIN*%
G70*
G04*
G04 #@! TF.SameCoordinates,4B2C5215-2B2B-4538-B039-7DC0A2B5EA6E*
G04*
G04*
G04 #@! TF.FilePolarity,Positive*
G04*
G01*
G75*
%ADD11C,0.02000*%
%ADD17C,0.00600*%
%ADD19R,0.13386X0.02362*%
%ADD20R,0.02756X0.02362*%
%ADD21R,0.03150X0.03150*%
%ADD22R,0.03150X0.03150*%
%ADD23R,0.03937X0.05709*%
%ADD24R,0.05709X0.03937*%
%ADD35C,0.07000*%
%ADD36C,0.06378*%
%ADD37O,0.07874X0.14961*%
%ADD38O,0.12992X0.07087*%
%ADD39C,0.05000*%
%ADD40C,0.02500*%
D11*
X118524Y170965D02*
X132917D01*
X126642Y99094D02*
X134060D01*
X106224Y85000D02*
X106630Y84595D01*
X106224Y85000D02*
X112000Y90776D01*
X106630Y84595D02*
X112142D01*
X126642Y99094D01*
X112000Y90776D02*
Y102935D01*
Y115094D01*
X104130Y170965D02*
X118524D01*
X81941Y151035D02*
Y170835D01*
X104000D01*
X112000Y125094D02*
X118524Y131618D01*
Y170965D01*
X52000Y121095D02*
X81941Y151035D01*
X74100Y102935D02*
X112000D01*
X85551Y69776D02*
X91254D01*
X85370Y69595D02*
X85551Y69776D01*
X97594Y84595D02*
X106630D01*
X95750Y82750D02*
X97594Y84595D01*
X91254Y69776D02*
X95250Y73772D01*
Y77654D02*
X95750Y78154D01*
X95250Y73772D02*
Y77654D01*
X95750Y78154D02*
Y82750D01*
X54000Y83031D02*
X54197D01*
X74100Y102935D01*
X135197Y153094D02*
X138953Y156850D01*
X59882Y170835D02*
X81941D01*
X138953Y156850D02*
Y171095D01*
X132917Y170965D02*
X133047Y171095D01*
X135000Y153094D02*
X135197D01*
X104000Y170835D02*
X104130Y170965D01*
X104000Y154500D02*
Y163354D01*
X59622Y171095D02*
X59882Y170835D01*
D17*
X304000Y54632D02*
X304400Y55032D01*
X304000Y46500D02*
Y54632D01*
X304500Y59569D02*
Y97000D01*
X303900Y58969D02*
X304500Y59569D01*
X304453Y102953D02*
X304500Y102905D01*
X141540Y99094D02*
X141635Y99000D01*
X154000D01*
X116905Y79594D02*
X120752Y75748D01*
X106630Y79594D02*
X116905D01*
X120752Y68252D02*
Y75748D01*
X74000Y64500D02*
X79000Y59500D01*
X141500Y62500D02*
X152000Y73000D01*
X77377Y66623D02*
X81500Y62500D01*
X77377Y66623D02*
Y71314D01*
X81500Y62500D02*
X141500D01*
X73637Y64136D02*
X74000Y64500D01*
X79000Y59500D02*
X120500D01*
Y68000D02*
X120752Y68252D01*
X98594Y74594D02*
X106630D01*
X84932Y72076D02*
X85370Y72513D01*
Y74594D01*
X98500Y74500D02*
X98594Y74594D01*
X85370Y79594D02*
X92405D01*
X92500Y79500D01*
X54000Y23063D02*
Y48910D01*
Y52847D02*
Y79094D01*
Y48910D02*
X54881Y49791D01*
X55342D01*
X67447Y61897D01*
X78139Y72076D02*
X84932D01*
X77377Y71314D02*
X78139Y72076D01*
X67447Y61897D02*
Y67183D01*
X125500Y41000D02*
X141905D01*
X152000Y51095D01*
X54000Y79094D02*
X54197D01*
X84965Y85000D02*
X85370Y84595D01*
X71000Y85000D02*
X84965D01*
X79858Y79594D02*
X85370D01*
X54197Y79094D02*
X60291Y73000D01*
X67447Y67183D02*
X79858Y79594D01*
X60291Y73000D02*
X65500D01*
X54000Y9500D02*
Y19126D01*
X245900Y46400D02*
Y54931D01*
X217300Y46400D02*
Y54931D01*
X275400Y46400D02*
Y55032D01*
X135000Y141000D02*
Y149158D01*
X245900Y96447D02*
X246500Y97047D01*
Y59569D02*
Y97047D01*
X276000Y59569D02*
Y97047D01*
X191905Y102905D02*
X218000D01*
X162000Y73000D02*
X191905Y102905D01*
X152000Y51095D02*
Y73000D01*
X276000Y102953D02*
X304453D01*
X205874Y58969D02*
X217400D01*
X188000Y41094D02*
X205874Y58969D01*
X218000Y102905D02*
X246453D01*
X246500Y102953D01*
X276000D01*
X245900Y54931D02*
X246000Y55032D01*
X275400Y58969D02*
X276000Y59569D01*
X245900Y58969D02*
X246500Y59569D01*
X217400Y58969D02*
X218000Y59569D01*
X214700Y54931D02*
X214800Y55032D01*
X218000Y59569D02*
Y97000D01*
D19*
X85370Y84595D02*
D03*
Y79594D02*
D03*
Y74594D02*
D03*
Y69595D02*
D03*
X106630D02*
D03*
Y74594D02*
D03*
Y79594D02*
D03*
Y84595D02*
D03*
D20*
X54000Y48910D02*
D03*
Y52847D02*
D03*
X303900Y55032D02*
D03*
Y58969D02*
D03*
X275400Y55032D02*
D03*
Y58969D02*
D03*
X245900Y55032D02*
D03*
Y58969D02*
D03*
X217400Y55032D02*
D03*
Y58969D02*
D03*
X54000Y79094D02*
D03*
Y83031D02*
D03*
X135000Y149158D02*
D03*
Y153094D02*
D03*
X54000Y19126D02*
D03*
Y23063D02*
D03*
D21*
X304500Y97000D02*
D03*
Y102905D02*
D03*
X276000Y97047D02*
D03*
Y102953D02*
D03*
X246500Y97047D02*
D03*
Y102953D02*
D03*
X218000Y97000D02*
D03*
Y102905D02*
D03*
D22*
X138953Y171095D02*
D03*
X133047D02*
D03*
D23*
X134060Y99094D02*
D03*
X141540D02*
D03*
D24*
X104000Y163354D02*
D03*
Y170835D02*
D03*
D35*
X188000Y31095D02*
D03*
Y41094D02*
D03*
Y11095D02*
D03*
Y21094D02*
D03*
X125500Y31000D02*
D03*
Y41000D02*
D03*
Y11000D02*
D03*
Y21000D02*
D03*
X42000Y121095D02*
D03*
X52000D02*
D03*
X22000D02*
D03*
X32000D02*
D03*
D36*
X152000Y73000D02*
D03*
X162000D02*
D03*
X112000Y125094D02*
D03*
Y115094D02*
D03*
D37*
X59622Y171095D02*
D03*
X36000D02*
D03*
D38*
X49779Y152787D02*
D03*
D39*
X245900Y46400D02*
D03*
X275400D02*
D03*
X71000Y85000D02*
D03*
X217300Y46400D02*
D03*
X104000Y154500D02*
D03*
X135000Y141000D02*
D03*
X304000Y46500D02*
D03*
X54000Y9500D02*
D03*
X154000Y99000D02*
D03*
D40*
X92500Y79500D02*
D03*
X120500Y59500D02*
D03*
X74000Y64500D02*
D03*
X65500Y73000D02*
D03*
X98500Y74500D02*
D03*
X120500Y68000D02*
D03*
M02*
