G04*
G04 #@! TF.GenerationSoftware,Altium Limited,Altium Designer,21.6.4 (81)*
G04*
G04 Layer_Color=65535*
%FSLAX25Y25*%
%MOIN*%
G70*
G04*
G04 #@! TF.SameCoordinates,4B2C5215-2B2B-4538-B039-7DC0A2B5EA6E*
G04*
G04*
G04 #@! TF.FilePolarity,Positive*
G04*
G01*
G75*
%ADD10C,0.01181*%
%ADD11C,0.02000*%
%ADD12C,0.01575*%
%ADD13C,0.00787*%
%ADD14C,0.01500*%
%ADD15C,0.01000*%
%ADD16C,0.00787*%
%ADD17C,0.00600*%
%ADD18C,0.00500*%
G36*
X141663Y70500D02*
X141054D01*
Y74379D01*
X141047Y74372D01*
X141011Y74343D01*
X140968Y74300D01*
X140896Y74250D01*
X140817Y74185D01*
X140717Y74114D01*
X140602Y74035D01*
X140473Y73956D01*
X140466D01*
X140459Y73949D01*
X140416Y73920D01*
X140344Y73884D01*
X140258Y73841D01*
X140158Y73791D01*
X140050Y73741D01*
X139943Y73691D01*
X139835Y73648D01*
Y74236D01*
X139842D01*
X139857Y74250D01*
X139885Y74257D01*
X139921Y74279D01*
X139964Y74300D01*
X140014Y74329D01*
X140136Y74401D01*
X140279Y74479D01*
X140423Y74580D01*
X140574Y74694D01*
X140724Y74816D01*
X140731Y74823D01*
X140738Y74831D01*
X140760Y74852D01*
X140789Y74874D01*
X140853Y74945D01*
X140939Y75031D01*
X141025Y75132D01*
X141118Y75247D01*
X141197Y75361D01*
X141269Y75483D01*
X141663D01*
Y70500D01*
D02*
G37*
G36*
X171971Y75476D02*
X172028Y75469D01*
X172100Y75462D01*
X172179Y75447D01*
X172258Y75433D01*
X172444Y75383D01*
X172631Y75311D01*
X172724Y75268D01*
X172817Y75218D01*
X172903Y75153D01*
X172982Y75082D01*
X172989Y75074D01*
X173003Y75067D01*
X173018Y75039D01*
X173047Y75010D01*
X173082Y74974D01*
X173118Y74924D01*
X173154Y74874D01*
X173197Y74809D01*
X173269Y74673D01*
X173340Y74501D01*
X173369Y74415D01*
X173383Y74314D01*
X173398Y74214D01*
X173405Y74107D01*
Y74092D01*
Y74056D01*
X173398Y73999D01*
X173391Y73920D01*
X173376Y73834D01*
X173348Y73734D01*
X173319Y73626D01*
X173276Y73519D01*
X173269Y73504D01*
X173255Y73468D01*
X173226Y73411D01*
X173183Y73332D01*
X173125Y73246D01*
X173054Y73139D01*
X172968Y73031D01*
X172867Y72909D01*
X172853Y72895D01*
X172817Y72852D01*
X172781Y72816D01*
X172745Y72780D01*
X172702Y72737D01*
X172645Y72680D01*
X172588Y72622D01*
X172516Y72558D01*
X172444Y72486D01*
X172358Y72407D01*
X172265Y72328D01*
X172165Y72235D01*
X172050Y72142D01*
X171935Y72041D01*
X171928Y72034D01*
X171914Y72020D01*
X171885Y71999D01*
X171849Y71970D01*
X171806Y71927D01*
X171756Y71884D01*
X171641Y71791D01*
X171519Y71683D01*
X171405Y71575D01*
X171304Y71482D01*
X171261Y71446D01*
X171225Y71411D01*
X171218Y71403D01*
X171197Y71382D01*
X171168Y71353D01*
X171132Y71310D01*
X171096Y71260D01*
X171053Y71210D01*
X170967Y71088D01*
X173412D01*
Y70500D01*
X170121D01*
Y70507D01*
Y70536D01*
Y70579D01*
X170128Y70636D01*
X170135Y70701D01*
X170150Y70772D01*
X170164Y70844D01*
X170193Y70923D01*
Y70930D01*
X170200Y70937D01*
X170214Y70980D01*
X170243Y71045D01*
X170286Y71131D01*
X170343Y71231D01*
X170415Y71346D01*
X170494Y71461D01*
X170594Y71583D01*
Y71590D01*
X170609Y71597D01*
X170645Y71640D01*
X170709Y71705D01*
X170802Y71798D01*
X170910Y71905D01*
X171046Y72034D01*
X171211Y72178D01*
X171390Y72328D01*
X171397Y72335D01*
X171426Y72357D01*
X171469Y72393D01*
X171519Y72436D01*
X171584Y72493D01*
X171663Y72558D01*
X171742Y72629D01*
X171835Y72708D01*
X172014Y72880D01*
X172193Y73053D01*
X172279Y73139D01*
X172358Y73225D01*
X172430Y73304D01*
X172487Y73382D01*
Y73390D01*
X172502Y73397D01*
X172516Y73418D01*
X172530Y73447D01*
X172581Y73526D01*
X172638Y73619D01*
X172688Y73734D01*
X172738Y73856D01*
X172767Y73992D01*
X172781Y74121D01*
Y74128D01*
Y74135D01*
X172774Y74178D01*
X172767Y74250D01*
X172745Y74329D01*
X172717Y74429D01*
X172667Y74529D01*
X172602Y74630D01*
X172516Y74730D01*
X172502Y74745D01*
X172466Y74773D01*
X172416Y74809D01*
X172337Y74859D01*
X172236Y74902D01*
X172122Y74945D01*
X171985Y74974D01*
X171835Y74981D01*
X171792D01*
X171763Y74974D01*
X171677Y74967D01*
X171577Y74945D01*
X171469Y74917D01*
X171347Y74866D01*
X171232Y74802D01*
X171125Y74716D01*
X171111Y74702D01*
X171082Y74666D01*
X171039Y74608D01*
X170996Y74522D01*
X170946Y74422D01*
X170903Y74293D01*
X170874Y74150D01*
X170860Y73985D01*
X170236Y74049D01*
Y74056D01*
X170243Y74078D01*
Y74114D01*
X170250Y74164D01*
X170265Y74221D01*
X170279Y74286D01*
X170300Y74365D01*
X170322Y74444D01*
X170379Y74616D01*
X170465Y74788D01*
X170516Y74874D01*
X170580Y74960D01*
X170645Y75039D01*
X170716Y75110D01*
X170723Y75117D01*
X170738Y75125D01*
X170759Y75146D01*
X170795Y75168D01*
X170838Y75196D01*
X170888Y75225D01*
X170946Y75261D01*
X171017Y75297D01*
X171096Y75333D01*
X171182Y75368D01*
X171275Y75397D01*
X171376Y75426D01*
X171484Y75447D01*
X171598Y75469D01*
X171720Y75476D01*
X171849Y75483D01*
X171921D01*
X171971Y75476D01*
D02*
G37*
G36*
X113236Y137252D02*
X113250Y137238D01*
X113257Y137209D01*
X113279Y137173D01*
X113300Y137130D01*
X113329Y137080D01*
X113400Y136958D01*
X113479Y136815D01*
X113580Y136672D01*
X113695Y136521D01*
X113816Y136370D01*
X113823Y136363D01*
X113831Y136356D01*
X113852Y136335D01*
X113874Y136306D01*
X113945Y136241D01*
X114031Y136155D01*
X114132Y136069D01*
X114246Y135976D01*
X114361Y135897D01*
X114483Y135826D01*
Y135431D01*
X109500D01*
Y136041D01*
X113379D01*
X113372Y136048D01*
X113343Y136084D01*
X113300Y136127D01*
X113250Y136198D01*
X113185Y136277D01*
X113114Y136378D01*
X113035Y136492D01*
X112956Y136621D01*
Y136628D01*
X112949Y136636D01*
X112920Y136679D01*
X112884Y136750D01*
X112841Y136837D01*
X112791Y136937D01*
X112741Y137044D01*
X112691Y137152D01*
X112648Y137259D01*
X113236D01*
Y137252D01*
D02*
G37*
G36*
X109636Y106966D02*
X109701Y106959D01*
X109773Y106945D01*
X109844Y106930D01*
X109923Y106902D01*
X109930D01*
X109937Y106895D01*
X109980Y106880D01*
X110045Y106851D01*
X110131Y106808D01*
X110231Y106751D01*
X110346Y106679D01*
X110461Y106600D01*
X110583Y106500D01*
X110590D01*
X110597Y106486D01*
X110640Y106450D01*
X110705Y106385D01*
X110798Y106292D01*
X110905Y106185D01*
X111034Y106048D01*
X111178Y105884D01*
X111328Y105704D01*
X111336Y105697D01*
X111357Y105668D01*
X111393Y105625D01*
X111436Y105575D01*
X111493Y105511D01*
X111558Y105432D01*
X111629Y105353D01*
X111708Y105260D01*
X111880Y105080D01*
X112053Y104901D01*
X112139Y104815D01*
X112225Y104736D01*
X112303Y104665D01*
X112382Y104607D01*
X112390D01*
X112397Y104593D01*
X112418Y104578D01*
X112447Y104564D01*
X112526Y104514D01*
X112619Y104457D01*
X112734Y104406D01*
X112856Y104356D01*
X112992Y104328D01*
X113121Y104313D01*
X113128D01*
X113135D01*
X113178Y104320D01*
X113250Y104328D01*
X113329Y104349D01*
X113429Y104378D01*
X113530Y104428D01*
X113630Y104492D01*
X113730Y104578D01*
X113745Y104593D01*
X113773Y104629D01*
X113809Y104679D01*
X113859Y104758D01*
X113902Y104858D01*
X113945Y104973D01*
X113974Y105109D01*
X113981Y105260D01*
Y105303D01*
X113974Y105331D01*
X113967Y105417D01*
X113945Y105518D01*
X113917Y105625D01*
X113866Y105747D01*
X113802Y105862D01*
X113716Y105970D01*
X113702Y105984D01*
X113666Y106012D01*
X113608Y106056D01*
X113522Y106099D01*
X113422Y106149D01*
X113293Y106192D01*
X113149Y106220D01*
X112985Y106235D01*
X113049Y106859D01*
X113056D01*
X113078Y106851D01*
X113114D01*
X113164Y106844D01*
X113221Y106830D01*
X113286Y106816D01*
X113365Y106794D01*
X113444Y106773D01*
X113616Y106715D01*
X113788Y106629D01*
X113874Y106579D01*
X113960Y106514D01*
X114039Y106450D01*
X114110Y106378D01*
X114118Y106371D01*
X114125Y106357D01*
X114146Y106335D01*
X114168Y106299D01*
X114196Y106256D01*
X114225Y106206D01*
X114261Y106149D01*
X114297Y106077D01*
X114333Y105998D01*
X114368Y105912D01*
X114397Y105819D01*
X114426Y105719D01*
X114447Y105611D01*
X114469Y105496D01*
X114476Y105374D01*
X114483Y105245D01*
Y105174D01*
X114476Y105123D01*
X114469Y105066D01*
X114462Y104994D01*
X114447Y104915D01*
X114433Y104837D01*
X114383Y104650D01*
X114311Y104464D01*
X114268Y104371D01*
X114218Y104277D01*
X114153Y104191D01*
X114082Y104113D01*
X114075Y104105D01*
X114067Y104091D01*
X114039Y104077D01*
X114010Y104048D01*
X113974Y104012D01*
X113924Y103976D01*
X113874Y103940D01*
X113809Y103897D01*
X113673Y103826D01*
X113501Y103754D01*
X113415Y103725D01*
X113314Y103711D01*
X113214Y103697D01*
X113107Y103690D01*
X113092D01*
X113056D01*
X112999Y103697D01*
X112920Y103704D01*
X112834Y103718D01*
X112734Y103747D01*
X112626Y103776D01*
X112519Y103819D01*
X112504Y103826D01*
X112468Y103840D01*
X112411Y103869D01*
X112332Y103912D01*
X112246Y103969D01*
X112139Y104041D01*
X112031Y104127D01*
X111909Y104227D01*
X111895Y104242D01*
X111852Y104277D01*
X111816Y104313D01*
X111780Y104349D01*
X111737Y104392D01*
X111680Y104449D01*
X111622Y104507D01*
X111558Y104578D01*
X111486Y104650D01*
X111407Y104736D01*
X111328Y104830D01*
X111235Y104930D01*
X111142Y105045D01*
X111042Y105159D01*
X111034Y105166D01*
X111020Y105181D01*
X110998Y105210D01*
X110970Y105245D01*
X110927Y105288D01*
X110884Y105339D01*
X110791Y105453D01*
X110683Y105575D01*
X110575Y105690D01*
X110482Y105790D01*
X110446Y105833D01*
X110411Y105869D01*
X110403Y105876D01*
X110382Y105898D01*
X110353Y105927D01*
X110310Y105962D01*
X110260Y105998D01*
X110210Y106041D01*
X110088Y106127D01*
Y103682D01*
X109500D01*
Y106973D01*
X109507D01*
X109536D01*
X109579D01*
X109636Y106966D01*
D02*
G37*
D10*
X94794Y84395D02*
G03*
X94794Y84395I-394J0D01*
G01*
D11*
X85764Y88595D02*
G03*
X85764Y88595I-492J0D01*
G01*
D12*
X70609Y170994D02*
G03*
X70609Y170994I-787J0D01*
G01*
D13*
X89701Y67252D02*
X102299D01*
X89701Y86937D02*
X102299D01*
Y67252D02*
Y86937D01*
X89701Y67252D02*
Y86937D01*
D14*
X193500Y5094D02*
Y47095D01*
X182500Y5094D02*
X193500D01*
X182500D02*
Y6594D01*
Y47095D02*
X193500D01*
X182500Y36595D02*
Y47095D01*
X131000Y5000D02*
Y47000D01*
X120000Y5000D02*
X131000D01*
X120000D02*
Y6500D01*
Y47000D02*
X131000D01*
X120000Y36500D02*
Y47000D01*
X16000Y115594D02*
X58000D01*
X16000D02*
Y126594D01*
X17500D01*
X58000Y115594D02*
Y126594D01*
X47500D02*
X58000D01*
D15*
X178500Y10845D02*
Y11572D01*
X180000Y9844D02*
Y12344D01*
X181500Y11095D02*
X182527D01*
X181500Y8845D02*
Y13344D01*
X178500Y20844D02*
Y21572D01*
X180000Y19845D02*
Y22344D01*
X181500Y21094D02*
X182527D01*
X181500Y18845D02*
Y23345D01*
X178500Y30845D02*
Y31572D01*
X180000Y29844D02*
Y32344D01*
X181500Y31095D02*
X182527D01*
X181500Y28844D02*
Y33345D01*
X116000Y10750D02*
Y11477D01*
X117500Y9750D02*
Y12250D01*
X119000Y11000D02*
X120027D01*
X119000Y8750D02*
Y13250D01*
X116000Y20750D02*
Y21477D01*
X117500Y19750D02*
Y22250D01*
X119000Y21000D02*
X120027D01*
X119000Y18750D02*
Y23250D01*
X116000Y30750D02*
Y31477D01*
X117500Y29750D02*
Y32250D01*
X119000Y31000D02*
X120027D01*
X119000Y28750D02*
Y33250D01*
X21750Y130595D02*
X22477D01*
X20750Y129095D02*
X23250D01*
X22000Y126568D02*
Y127594D01*
X19750D02*
X24250D01*
X31750Y130595D02*
X32477D01*
X30750Y129095D02*
X33250D01*
X32000Y126568D02*
Y127594D01*
X29750D02*
X34250D01*
X41750Y130595D02*
X42477D01*
X40750Y129095D02*
X43250D01*
X42000Y126568D02*
Y127594D01*
X39750D02*
X44250D01*
X36091Y171095D02*
X36122D01*
X302800Y93653D02*
X306200D01*
X274300Y93700D02*
X277700D01*
X244800D02*
X248200D01*
X216300Y93653D02*
X219700D01*
X142300Y169395D02*
Y172794D01*
X224538Y191693D02*
X220540D01*
Y185695D01*
X224538D01*
X220540Y188694D02*
X222539D01*
X230537Y190693D02*
X229537Y191693D01*
X227537D01*
X226538Y190693D01*
Y186695D01*
X227537Y185695D01*
X229537D01*
X230537Y186695D01*
X236535Y191693D02*
X232536D01*
Y185695D01*
X236535D01*
X232536Y188694D02*
X234535D01*
X238534Y185695D02*
Y191693D01*
X242533Y185695D01*
Y191693D01*
X253529Y185695D02*
Y191693D01*
X250530Y188694D01*
X254529D01*
X256528Y191693D02*
X260527D01*
Y190693D01*
X256528Y186695D01*
Y185695D01*
X262526Y190693D02*
X263526Y191693D01*
X265525D01*
X266525Y190693D01*
Y189694D01*
X265525Y188694D01*
X264526D01*
X265525D01*
X266525Y187694D01*
Y186695D01*
X265525Y185695D01*
X263526D01*
X262526Y186695D01*
X268524Y190693D02*
X269524Y191693D01*
X271523D01*
X272523Y190693D01*
Y186695D01*
X271523Y185695D01*
X269524D01*
X268524Y186695D01*
Y190693D01*
X280520Y191693D02*
X284519D01*
X282520D01*
Y185695D01*
X286518D02*
X288518D01*
X287518D01*
Y189694D01*
X286518D01*
X291517Y185695D02*
Y189694D01*
X292516D01*
X293516Y188694D01*
Y185695D01*
Y188694D01*
X294516Y189694D01*
X295515Y188694D01*
Y185695D01*
X300514D02*
X298515D01*
X297515Y186695D01*
Y188694D01*
X298515Y189694D01*
X300514D01*
X301514Y188694D01*
Y187694D01*
X297515D01*
X303513Y189694D02*
Y185695D01*
Y187694D01*
X304513Y188694D01*
X305512Y189694D01*
X306512D01*
X315509Y191693D02*
Y185695D01*
X318508D01*
X319508Y186695D01*
Y187694D01*
X318508Y188694D01*
X315509D01*
X318508D01*
X319508Y189694D01*
Y190693D01*
X318508Y191693D01*
X315509D01*
X322507Y185695D02*
X324506D01*
X325506Y186695D01*
Y188694D01*
X324506Y189694D01*
X322507D01*
X321507Y188694D01*
Y186695D01*
X322507Y185695D01*
X328505Y189694D02*
X330504D01*
X331504Y188694D01*
Y185695D01*
X328505D01*
X327505Y186695D01*
X328505Y187694D01*
X331504D01*
X333503Y189694D02*
Y185695D01*
Y187694D01*
X334503Y188694D01*
X335503Y189694D01*
X336502D01*
X343500Y191693D02*
Y185695D01*
X340501D01*
X339501Y186695D01*
Y188694D01*
X340501Y189694D01*
X343500D01*
X224538Y181096D02*
X223539Y182095D01*
X221539D01*
X220540Y181096D01*
Y180096D01*
X221539Y179096D01*
X223539D01*
X224538Y178097D01*
Y177097D01*
X223539Y176097D01*
X221539D01*
X220540Y177097D01*
X227537Y180096D02*
X229537D01*
X230537Y179096D01*
Y176097D01*
X227537D01*
X226538Y177097D01*
X227537Y178097D01*
X230537D01*
X232536Y176097D02*
Y180096D01*
X233536D01*
X234535Y179096D01*
Y176097D01*
Y179096D01*
X235535Y180096D01*
X236535Y179096D01*
Y176097D01*
X248531Y182095D02*
X244532D01*
Y179096D01*
X246531D01*
X244532D01*
Y176097D01*
X250530Y180096D02*
Y176097D01*
Y178097D01*
X251530Y179096D01*
X252529Y180096D01*
X253529D01*
X259527Y176097D02*
X257528D01*
X256528Y177097D01*
Y179096D01*
X257528Y180096D01*
X259527D01*
X260527Y179096D01*
Y178097D01*
X256528D01*
X265525Y176097D02*
X263526D01*
X262526Y177097D01*
Y179096D01*
X263526Y180096D01*
X265525D01*
X266525Y179096D01*
Y178097D01*
X262526D01*
X272523Y182095D02*
Y176097D01*
X269524D01*
X268524Y177097D01*
Y179096D01*
X269524Y180096D01*
X272523D01*
X275522Y175098D02*
X276522Y176097D01*
Y177097D01*
X275522D01*
Y176097D01*
X276522D01*
X275522Y175098D01*
X274522Y174098D01*
X290517Y176097D02*
X286518D01*
X290517Y180096D01*
Y181096D01*
X289517Y182095D01*
X287518D01*
X286518Y181096D01*
X292516D02*
X293516Y182095D01*
X295515D01*
X296515Y181096D01*
Y177097D01*
X295515Y176097D01*
X293516D01*
X292516Y177097D01*
Y181096D01*
X302513Y176097D02*
X298515D01*
X302513Y180096D01*
Y181096D01*
X301514Y182095D01*
X299514D01*
X298515Y181096D01*
X304513Y176097D02*
X306512D01*
X305512D01*
Y182095D01*
X304513Y181096D01*
X309511Y179096D02*
X313510D01*
X315509Y181096D02*
X316509Y182095D01*
X318508D01*
X319508Y181096D01*
Y177097D01*
X318508Y176097D01*
X316509D01*
X315509Y177097D01*
Y181096D01*
X321507D02*
X322507Y182095D01*
X324506D01*
X325506Y181096D01*
Y180096D01*
X324506Y179096D01*
X325506Y178097D01*
Y177097D01*
X324506Y176097D01*
X322507D01*
X321507Y177097D01*
Y178097D01*
X322507Y179096D01*
X321507Y180096D01*
Y181096D01*
X322507Y179096D02*
X324506D01*
X327505D02*
X331504D01*
X337502Y176097D02*
X333503D01*
X337502Y180096D01*
Y181096D01*
X336502Y182095D01*
X334503D01*
X333503Y181096D01*
X339501Y177097D02*
X340501Y176097D01*
X342500D01*
X343500Y177097D01*
Y181096D01*
X342500Y182095D01*
X340501D01*
X339501Y181096D01*
Y180096D01*
X340501Y179096D01*
X343500D01*
X207544Y172498D02*
X203545D01*
Y166500D01*
X207544D01*
X203545Y169499D02*
X205545D01*
X213542Y171498D02*
X212542Y172498D01*
X210543D01*
X209543Y171498D01*
Y167499D01*
X210543Y166500D01*
X212542D01*
X213542Y167499D01*
X219540Y172498D02*
X215541D01*
Y166500D01*
X219540D01*
X215541Y169499D02*
X217541D01*
X221539Y166500D02*
Y172498D01*
X225538Y166500D01*
Y172498D01*
X230537Y166500D02*
Y172498D01*
X227537Y169499D01*
X231536D01*
X233536Y172498D02*
X237534D01*
Y171498D01*
X233536Y167499D01*
Y166500D01*
X239534Y171498D02*
X240533Y172498D01*
X242533D01*
X243532Y171498D01*
Y170498D01*
X242533Y169499D01*
X241533D01*
X242533D01*
X243532Y168499D01*
Y167499D01*
X242533Y166500D01*
X240533D01*
X239534Y167499D01*
X245532Y171498D02*
X246531Y172498D01*
X248531D01*
X249530Y171498D01*
Y167499D01*
X248531Y166500D01*
X246531D01*
X245532Y167499D01*
Y171498D01*
X251530Y165500D02*
X255528D01*
X257528Y172498D02*
Y166500D01*
X260527D01*
X261526Y167499D01*
Y168499D01*
X260527Y169499D01*
X257528D01*
X260527D01*
X261526Y170498D01*
Y171498D01*
X260527Y172498D01*
X257528D01*
X263526Y166500D02*
Y172498D01*
X266525D01*
X267525Y171498D01*
Y169499D01*
X266525Y168499D01*
X263526D01*
X265525D02*
X267525Y166500D01*
X269524Y172498D02*
Y166500D01*
X272523D01*
X273523Y167499D01*
Y171498D01*
X272523Y172498D01*
X269524D01*
X275522Y166500D02*
X277521D01*
X276522D01*
Y172498D01*
X275522Y171498D01*
X280520Y165500D02*
X284519D01*
X290517Y166500D02*
X286518D01*
X290517Y170498D01*
Y171498D01*
X289517Y172498D01*
X287518D01*
X286518Y171498D01*
X292516D02*
X293516Y172498D01*
X295515D01*
X296515Y171498D01*
Y167499D01*
X295515Y166500D01*
X293516D01*
X292516Y167499D01*
Y171498D01*
X302513Y166500D02*
X298515D01*
X302513Y170498D01*
Y171498D01*
X301514Y172498D01*
X299514D01*
X298515Y171498D01*
X304513Y166500D02*
X306512D01*
X305512D01*
Y172498D01*
X304513Y171498D01*
X309511Y169499D02*
X313510D01*
X315509Y171498D02*
X316509Y172498D01*
X318508D01*
X319508Y171498D01*
Y167499D01*
X318508Y166500D01*
X316509D01*
X315509Y167499D01*
Y171498D01*
X321507D02*
X322507Y172498D01*
X324506D01*
X325506Y171498D01*
Y170498D01*
X324506Y169499D01*
X325506Y168499D01*
Y167499D01*
X324506Y166500D01*
X322507D01*
X321507Y167499D01*
Y168499D01*
X322507Y169499D01*
X321507Y170498D01*
Y171498D01*
X322507Y169499D02*
X324506D01*
X327505D02*
X331504D01*
X337502Y166500D02*
X333503D01*
X337502Y170498D01*
Y171498D01*
X336502Y172498D01*
X334503D01*
X333503Y171498D01*
X339501Y167499D02*
X340501Y166500D01*
X342500D01*
X343500Y167499D01*
Y171498D01*
X342500Y172498D01*
X340501D01*
X339501Y171498D01*
Y170498D01*
X340501Y169499D01*
X343500D01*
X255999Y56834D02*
Y59500D01*
X253999D01*
X254666Y58167D01*
Y57501D01*
X253999Y56834D01*
X252666D01*
X252000Y57501D01*
Y58834D01*
X252666Y59500D01*
X255332Y55501D02*
X255999Y54835D01*
Y53502D01*
X255332Y52836D01*
X252666D01*
X252000Y53502D01*
Y54835D01*
X252666Y55501D01*
X255332D01*
X283832Y60000D02*
X284499Y59334D01*
Y58001D01*
X283832Y57334D01*
X283166D01*
X282499Y58001D01*
Y58667D01*
Y58001D01*
X281833Y57334D01*
X281166D01*
X280500Y58001D01*
Y59334D01*
X281166Y60000D01*
X283832Y56001D02*
X284499Y55335D01*
Y54002D01*
X283832Y53335D01*
X281166D01*
X280500Y54002D01*
Y55335D01*
X281166Y56001D01*
X283832D01*
Y52003D02*
X284499Y51336D01*
Y50003D01*
X283832Y49337D01*
X281166D01*
X280500Y50003D01*
Y51336D01*
X281166Y52003D01*
X283832D01*
X65999Y121998D02*
X62000D01*
Y118999D01*
X63999Y119999D01*
X64999D01*
X65999Y118999D01*
Y117000D01*
X64999Y116000D01*
X63000D01*
X62000Y117000D01*
X67998Y121998D02*
Y117999D01*
X69997Y116000D01*
X71997Y117999D01*
Y121998D01*
X309000Y59000D02*
Y57667D01*
Y58334D01*
X312999D01*
X312332Y59000D01*
Y55668D02*
X312999Y55001D01*
Y53668D01*
X312332Y53002D01*
X309666D01*
X309000Y53668D01*
Y55001D01*
X309666Y55668D01*
X312332D01*
X309000Y51669D02*
X312999D01*
X310333D02*
X311666Y49670D01*
X310333Y51669D02*
X309000Y49670D01*
X120999Y121998D02*
X117000D01*
Y118999D01*
X118999Y119999D01*
X119999D01*
X120999Y118999D01*
Y117000D01*
X119999Y116000D01*
X118000D01*
X117000Y117000D01*
X126997Y121998D02*
X122998D01*
Y118999D01*
X124997Y119999D01*
X125997D01*
X126997Y118999D01*
Y117000D01*
X125997Y116000D01*
X123998D01*
X122998Y117000D01*
X132995Y121998D02*
X128996D01*
Y118999D01*
X130996Y119999D01*
X131995D01*
X132995Y118999D01*
Y117000D01*
X131995Y116000D01*
X129996D01*
X128996Y117000D01*
X143991Y121998D02*
X141992D01*
X140992Y120998D01*
Y117000D01*
X141992Y116000D01*
X143991D01*
X144991Y117000D01*
Y120998D01*
X143991Y121998D01*
X147990Y116000D02*
Y120998D01*
Y118999D01*
X146990D01*
X148990D01*
X147990D01*
Y120998D01*
X148990Y121998D01*
X152988Y116000D02*
Y120998D01*
Y118999D01*
X151989D01*
X153988D01*
X152988D01*
Y120998D01*
X153988Y121998D01*
X156987Y116000D02*
X160986Y119999D01*
X165984Y121998D02*
X163985D01*
X162985Y120998D01*
Y117000D01*
X163985Y116000D01*
X165984D01*
X166984Y117000D01*
Y120998D01*
X165984Y121998D01*
X168983Y116000D02*
Y119999D01*
X171982D01*
X172982Y118999D01*
Y116000D01*
X148499Y168834D02*
Y171500D01*
X146499D01*
X147166Y170167D01*
Y169501D01*
X146499Y168834D01*
X145167D01*
X144500Y169501D01*
Y170834D01*
X145167Y171500D01*
X148499Y167501D02*
X145833D01*
X144500Y166168D01*
X145833Y164836D01*
X148499D01*
Y157504D02*
Y158837D01*
X147832Y159504D01*
X145167D01*
X144500Y158837D01*
Y157504D01*
X145167Y156838D01*
X147832D01*
X148499Y157504D01*
X144500Y155505D02*
X147166D01*
Y153506D01*
X146499Y152839D01*
X144500D01*
X83499Y44998D02*
X79500D01*
Y41999D01*
X81499Y42999D01*
X82499D01*
X83499Y41999D01*
Y40000D01*
X82499Y39000D01*
X80500D01*
X79500Y40000D01*
X89497Y44998D02*
X85498D01*
Y41999D01*
X87497Y42999D01*
X88497D01*
X89497Y41999D01*
Y40000D01*
X88497Y39000D01*
X86498D01*
X85498Y40000D01*
X95495Y44998D02*
X91496D01*
Y41999D01*
X93496Y42999D01*
X94495D01*
X95495Y41999D01*
Y40000D01*
X94495Y39000D01*
X92496D01*
X91496Y40000D01*
X106491Y44998D02*
X104492D01*
X103492Y43998D01*
Y40000D01*
X104492Y39000D01*
X106491D01*
X107491Y40000D01*
Y43998D01*
X106491Y44998D01*
X109490Y42999D02*
Y40000D01*
X110490Y39000D01*
X113489D01*
Y42999D01*
X116488Y43998D02*
Y42999D01*
X115488D01*
X117488D01*
X116488D01*
Y40000D01*
X117488Y39000D01*
X222500Y58000D02*
Y56667D01*
Y57334D01*
X226499D01*
X225832Y58000D01*
X222500Y54668D02*
X226499D01*
X223833D02*
X225166Y52668D01*
X223833Y54668D02*
X222500Y52668D01*
X196500Y27000D02*
X197833D01*
X197167D01*
Y30999D01*
X196500Y30332D01*
X199832Y27000D02*
Y30999D01*
Y28333D02*
X201832Y29666D01*
X199832Y28333D02*
X201832Y27000D01*
X207830D02*
Y30999D01*
X209829D01*
X210495Y30332D01*
Y28999D01*
X209829Y28333D01*
X207830D01*
X209163D02*
X210495Y27000D01*
X213828D02*
X212495D01*
X211828Y27666D01*
Y28999D01*
X212495Y29666D01*
X213828D01*
X214494Y28999D01*
Y28333D01*
X211828D01*
X215827Y27000D02*
X217827D01*
X218493Y27666D01*
X217827Y28333D01*
X216494D01*
X215827Y28999D01*
X216494Y29666D01*
X218493D01*
X219826Y27000D02*
X221159D01*
X220492D01*
Y29666D01*
X219826D01*
X223158Y27000D02*
X225157D01*
X225824Y27666D01*
X225157Y28333D01*
X223825D01*
X223158Y28999D01*
X223825Y29666D01*
X225824D01*
X227823Y30332D02*
Y29666D01*
X227157D01*
X228490D01*
X227823D01*
Y27666D01*
X228490Y27000D01*
X231155D02*
X232488D01*
X233155Y27666D01*
Y28999D01*
X232488Y29666D01*
X231155D01*
X230489Y28999D01*
Y27666D01*
X231155Y27000D01*
X234488Y29666D02*
Y27000D01*
Y28333D01*
X235154Y28999D01*
X235821Y29666D01*
X236487D01*
X157000Y61998D02*
Y56000D01*
X160999D01*
X166997Y61998D02*
X162998D01*
Y56000D01*
X166997D01*
X162998Y58999D02*
X164997D01*
X168996Y61998D02*
Y56000D01*
X171995D01*
X172995Y57000D01*
Y60998D01*
X171995Y61998D01*
X168996D01*
X79300Y99099D02*
Y94100D01*
X80300Y93101D01*
X82299D01*
X83299Y94100D01*
Y99099D01*
X85298Y93101D02*
X87298D01*
X86298D01*
Y99099D01*
X85298Y98099D01*
X179000Y56799D02*
X182999D01*
X181000D01*
Y50801D01*
X184998D02*
Y56799D01*
X187997D01*
X188997Y55799D01*
Y53800D01*
X187997Y52800D01*
X184998D01*
X190996Y55799D02*
X191996Y56799D01*
X193995D01*
X194995Y55799D01*
Y54799D01*
X193995Y53800D01*
X192996D01*
X193995D01*
X194995Y52800D01*
Y51800D01*
X193995Y50801D01*
X191996D01*
X190996Y51800D01*
X116500Y56699D02*
X120499D01*
X118500D01*
Y50701D01*
X122498D02*
Y56699D01*
X125497D01*
X126497Y55699D01*
Y53700D01*
X125497Y52700D01*
X122498D01*
X132495Y50701D02*
X128496D01*
X132495Y54699D01*
Y55699D01*
X131495Y56699D01*
X129496D01*
X128496Y55699D01*
X16200Y140099D02*
X20199D01*
X18200D01*
Y134101D01*
X22198D02*
Y140099D01*
X25197D01*
X26197Y139099D01*
Y137100D01*
X25197Y136100D01*
X22198D01*
X28196Y134101D02*
X30196D01*
X29196D01*
Y140099D01*
X28196Y139099D01*
X144799Y86399D02*
X143799Y87399D01*
X141800D01*
X140800Y86399D01*
Y85399D01*
X141800Y84400D01*
X143799D01*
X144799Y83400D01*
Y82400D01*
X143799Y81401D01*
X141800D01*
X140800Y82400D01*
X146798Y87399D02*
Y81401D01*
X148798Y83400D01*
X150797Y81401D01*
Y87399D01*
X156795Y81401D02*
X152796D01*
X156795Y85399D01*
Y86399D01*
X155795Y87399D01*
X153796D01*
X152796Y86399D01*
X111599Y145299D02*
X110599Y146299D01*
X108600D01*
X107600Y145299D01*
Y144299D01*
X108600Y143300D01*
X110599D01*
X111599Y142300D01*
Y141300D01*
X110599Y140301D01*
X108600D01*
X107600Y141300D01*
X113598Y146299D02*
Y140301D01*
X115598Y142300D01*
X117597Y140301D01*
Y146299D01*
X119596Y140301D02*
X121596D01*
X120596D01*
Y146299D01*
X119596Y145299D01*
X52000Y57901D02*
Y63899D01*
X54999D01*
X55999Y62899D01*
Y60900D01*
X54999Y59900D01*
X52000D01*
X54000D02*
X55999Y57901D01*
X57998Y63899D02*
X61997D01*
Y62899D01*
X57998Y58900D01*
Y57901D01*
X301900Y64001D02*
Y69999D01*
X304899D01*
X305899Y68999D01*
Y67000D01*
X304899Y66000D01*
X301900D01*
X303900D02*
X305899Y64001D01*
X311897Y69999D02*
X309898Y68999D01*
X307898Y67000D01*
Y65000D01*
X308898Y64001D01*
X310897D01*
X311897Y65000D01*
Y66000D01*
X310897Y67000D01*
X307898D01*
X273400Y64001D02*
Y69999D01*
X276399D01*
X277399Y68999D01*
Y67000D01*
X276399Y66000D01*
X273400D01*
X275400D02*
X277399Y64001D01*
X283397Y69999D02*
X279398D01*
Y67000D01*
X281398Y67999D01*
X282397D01*
X283397Y67000D01*
Y65000D01*
X282397Y64001D01*
X280398D01*
X279398Y65000D01*
X243900Y64001D02*
Y69999D01*
X246899D01*
X247899Y68999D01*
Y67000D01*
X246899Y66000D01*
X243900D01*
X245900D02*
X247899Y64001D01*
X252897D02*
Y69999D01*
X249898Y67000D01*
X253897D01*
X215400Y64001D02*
Y69999D01*
X218399D01*
X219399Y68999D01*
Y67000D01*
X218399Y66000D01*
X215400D01*
X217400D02*
X219399Y64001D01*
X221398Y68999D02*
X222398Y69999D01*
X224397D01*
X225397Y68999D01*
Y67999D01*
X224397Y67000D01*
X223398D01*
X224397D01*
X225397Y66000D01*
Y65000D01*
X224397Y64001D01*
X222398D01*
X221398Y65000D01*
X52000Y88101D02*
Y94099D01*
X54999D01*
X55999Y93099D01*
Y91100D01*
X54999Y90100D01*
X52000D01*
X54000D02*
X55999Y88101D01*
X61997D02*
X57998D01*
X61997Y92099D01*
Y93099D01*
X60997Y94099D01*
X58998D01*
X57998Y93099D01*
X133000Y158101D02*
Y164099D01*
X135999D01*
X136999Y163099D01*
Y161100D01*
X135999Y160100D01*
X133000D01*
X135000D02*
X136999Y158101D01*
X138998D02*
X140998D01*
X139998D01*
Y164099D01*
X138998Y163099D01*
X6500Y192101D02*
Y198099D01*
X9499D01*
X10499Y197099D01*
Y195100D01*
X9499Y194100D01*
X6500D01*
X12498Y192101D02*
X14498D01*
X13498D01*
Y198099D01*
X12498Y197099D01*
X301900Y113899D02*
Y107901D01*
X305899D01*
X311897Y113899D02*
X307898D01*
Y107901D01*
X311897D01*
X307898Y110900D02*
X309898D01*
X313896Y113899D02*
Y107901D01*
X316895D01*
X317895Y108900D01*
Y112899D01*
X316895Y113899D01*
X313896D01*
X323893D02*
X319894D01*
Y110900D01*
X321894Y111899D01*
X322894D01*
X323893Y110900D01*
Y108900D01*
X322894Y107901D01*
X320894D01*
X319894Y108900D01*
X273400Y113899D02*
Y107901D01*
X277399D01*
X283397Y113899D02*
X279398D01*
Y107901D01*
X283397D01*
X279398Y110900D02*
X281398D01*
X285396Y113899D02*
Y107901D01*
X288395D01*
X289395Y108900D01*
Y112899D01*
X288395Y113899D01*
X285396D01*
X294393Y107901D02*
Y113899D01*
X291394Y110900D01*
X295393D01*
X243900Y113899D02*
Y107901D01*
X247899D01*
X253897Y113899D02*
X249898D01*
Y107901D01*
X253897D01*
X249898Y110900D02*
X251898D01*
X255896Y113899D02*
Y107901D01*
X258895D01*
X259895Y108900D01*
Y112899D01*
X258895Y113899D01*
X255896D01*
X261894Y112899D02*
X262894Y113899D01*
X264894D01*
X265893Y112899D01*
Y111899D01*
X264894Y110900D01*
X263894D01*
X264894D01*
X265893Y109900D01*
Y108900D01*
X264894Y107901D01*
X262894D01*
X261894Y108900D01*
X215400Y113899D02*
Y107901D01*
X219399D01*
X225397Y113899D02*
X221398D01*
Y107901D01*
X225397D01*
X221398Y110900D02*
X223398D01*
X227396Y113899D02*
Y107901D01*
X230395D01*
X231395Y108900D01*
Y112899D01*
X230395Y113899D01*
X227396D01*
X237393Y107901D02*
X233394D01*
X237393Y111899D01*
Y112899D01*
X236393Y113899D01*
X234394D01*
X233394Y112899D01*
X132100Y183699D02*
Y177701D01*
X136099D01*
X142097Y183699D02*
X138098D01*
Y177701D01*
X142097D01*
X138098Y180700D02*
X140098D01*
X144096Y183699D02*
Y177701D01*
X147095D01*
X148095Y178700D01*
Y182699D01*
X147095Y183699D01*
X144096D01*
X150094Y177701D02*
X152094D01*
X151094D01*
Y183699D01*
X150094Y182699D01*
X136999Y111599D02*
X135999Y112599D01*
X134000D01*
X133000Y111599D01*
Y107600D01*
X134000Y106601D01*
X135999D01*
X136999Y107600D01*
X138998Y111599D02*
X139998Y112599D01*
X141997D01*
X142997Y111599D01*
Y110599D01*
X141997Y109600D01*
X140998D01*
X141997D01*
X142997Y108600D01*
Y107600D01*
X141997Y106601D01*
X139998D01*
X138998Y107600D01*
X55999Y32699D02*
X54999Y33699D01*
X53000D01*
X52000Y32699D01*
Y28700D01*
X53000Y27701D01*
X54999D01*
X55999Y28700D01*
X61997Y27701D02*
X57998D01*
X61997Y31699D01*
Y32699D01*
X60997Y33699D01*
X58998D01*
X57998Y32699D01*
X104499Y180899D02*
X103499Y181899D01*
X101500D01*
X100500Y180899D01*
Y176900D01*
X101500Y175901D01*
X103499D01*
X104499Y176900D01*
X106498Y175901D02*
X108498D01*
X107498D01*
Y181899D01*
X106498Y180899D01*
D16*
X168772Y68000D02*
Y77965D01*
X145228D02*
X168772D01*
X145228Y68000D02*
Y77965D01*
Y68000D02*
X168772D01*
X107000Y108323D02*
X116965D01*
Y131867D01*
X107000D02*
X116965D01*
X107000Y108323D02*
Y131867D01*
D17*
X56700Y47579D02*
Y54579D01*
X51300Y47579D02*
Y54579D01*
X306600Y53700D02*
Y60700D01*
X301200Y53700D02*
Y60700D01*
X278100Y53700D02*
Y60700D01*
X272700Y53700D02*
Y60700D01*
X248600Y53700D02*
Y60700D01*
X243200Y53700D02*
Y60700D01*
X220100Y53700D02*
Y60700D01*
X214700Y53700D02*
Y60700D01*
X56700Y77763D02*
Y84763D01*
X51300Y77763D02*
Y84763D01*
X137700Y147826D02*
Y154826D01*
X132300Y147826D02*
Y154826D01*
X301200Y95953D02*
Y103853D01*
X307800Y96053D02*
Y103953D01*
X272700Y96000D02*
Y103900D01*
X279300Y96100D02*
Y104000D01*
X243200Y96000D02*
Y103900D01*
X249800Y96100D02*
Y104000D01*
X214700Y95953D02*
Y103853D01*
X221300Y96053D02*
Y103953D01*
X132100Y167795D02*
X140000D01*
X132000Y174395D02*
X139900D01*
X132300Y103295D02*
X143300D01*
X132300Y94894D02*
X143300D01*
X51300Y17394D02*
Y24395D01*
X56700Y17394D02*
Y24395D01*
X99800Y161594D02*
Y172594D01*
X108200Y161594D02*
Y172594D01*
D18*
X5776Y153378D02*
X41012D01*
X62468Y180595D02*
Y188811D01*
X5776D02*
X62468D01*
X5776Y153378D02*
Y188811D01*
X62468Y153378D02*
Y162394D01*
X57722Y153378D02*
X62468D01*
M02*
